<svg width="1879" height="571" viewBox="0 0 1879 571" fill="none" xmlns="http://www.w3.org/2000/svg">
<path d="M1367 40C1367 17.9086 1384.91 0 1407 0H1556.56C1559.87 0 1562.56 2.68629 1562.56 6V101.333C1562.56 104.647 1559.87 107.333 1556.56 107.333H1373C1369.69 107.333 1367 104.647 1367 101.333V40Z" fill="#57E0FF"/>
<path d="M1397.02 27.176H1411.64V31.336H1401.37V35.944H1410.23V40.04H1401.37V44.84H1411.64V49H1397.02V27.176ZM1420.55 43.56L1417.96 49H1412.64L1417.44 41.16L1412.64 33.96H1417.96L1420.55 38.952L1423.14 33.96H1428.45L1423.65 41.16L1428.45 49H1423.14L1420.55 43.56ZM1436.11 49.352C1434.55 49.352 1433.18 49.0107 1431.98 48.328C1430.79 47.6453 1429.86 46.7067 1429.2 45.512C1428.56 44.3173 1428.24 42.9733 1428.24 41.48C1428.24 40.008 1428.57 38.6747 1429.23 37.48C1429.89 36.264 1430.81 35.3147 1431.98 34.632C1433.16 33.9493 1434.49 33.608 1435.98 33.608C1437.48 33.608 1438.8 33.9493 1439.95 34.632C1441.12 35.3147 1442.03 36.264 1442.67 37.48C1443.33 38.6747 1443.66 40.008 1443.66 41.48C1443.66 41.9493 1443.65 42.4293 1443.63 42.92H1432.34C1432.57 43.8587 1433.01 44.5733 1433.65 45.064C1434.29 45.5547 1435.08 45.8 1436.02 45.8C1436.85 45.8 1437.51 45.6933 1438 45.48C1438.51 45.2667 1438.92 44.9253 1439.22 44.456H1443.22C1442.77 46.0987 1441.88 47.3253 1440.56 48.136C1439.24 48.9467 1437.75 49.352 1436.11 49.352ZM1439.63 39.976C1439.48 39.1653 1439.07 38.504 1438.38 37.992C1437.7 37.4587 1436.9 37.192 1435.98 37.192C1435.04 37.192 1434.24 37.448 1433.58 37.96C1432.94 38.4507 1432.52 39.1227 1432.3 39.976H1439.63ZM1452.76 49.352C1451.22 49.352 1449.84 49.0107 1448.63 48.328C1447.41 47.6453 1446.45 46.7067 1445.75 45.512C1445.07 44.296 1444.72 42.952 1444.72 41.48C1444.72 40.008 1445.07 38.6747 1445.75 37.48C1446.45 36.264 1447.41 35.3147 1448.63 34.632C1449.84 33.9493 1451.22 33.608 1452.76 33.608C1454.74 33.608 1456.4 34.152 1457.75 35.24C1459.11 36.3067 1459.95 37.736 1460.24 39.528H1455.99C1455.43 38.1413 1454.39 37.448 1452.85 37.448C1451.74 37.448 1450.84 37.832 1450.13 38.6C1449.43 39.3467 1449.08 40.3067 1449.08 41.48C1449.08 42.6533 1449.43 43.624 1450.13 44.392C1450.84 45.1387 1451.74 45.512 1452.85 45.512C1454.39 45.512 1455.43 44.8187 1455.99 43.432H1460.24C1459.95 45.224 1459.11 46.664 1457.75 47.752C1456.4 48.8187 1454.74 49.352 1452.76 49.352ZM1469.34 49.352C1467.08 49.352 1465.3 48.712 1464.02 47.432C1462.77 46.152 1462.14 44.4667 1462.14 42.376V33.96H1466.55V42.056C1466.55 43.144 1466.79 43.9973 1467.26 44.616C1467.75 45.2133 1468.44 45.512 1469.34 45.512C1471.15 45.512 1472.06 44.3707 1472.06 42.088V33.96H1476.47V42.408C1476.47 43.688 1476.16 44.8613 1475.54 45.928C1474.95 46.9733 1474.1 47.8053 1473.02 48.424C1471.93 49.0427 1470.7 49.352 1469.34 49.352ZM1486.03 49.256C1483.96 49.256 1482.31 48.6693 1481.07 47.496C1479.86 46.3227 1479.25 44.552 1479.25 42.184V29.192H1483.66V33.96H1488.24V37.544H1483.66V41.736C1483.66 42.632 1483.76 43.336 1483.95 43.848C1484.17 44.36 1484.54 44.744 1485.07 45C1485.61 45.256 1486.36 45.384 1487.34 45.384C1487.71 45.3627 1488.07 45.352 1488.43 45.352V49C1487.64 49.1707 1486.84 49.256 1486.03 49.256ZM1490.29 33.96H1494.71V49H1490.29V33.96ZM1492.5 31.688C1491.76 31.688 1491.11 31.432 1490.55 30.92C1490.02 30.408 1489.75 29.7893 1489.75 29.064C1489.75 28.3173 1490.02 27.688 1490.55 27.176C1491.11 26.6427 1491.76 26.376 1492.5 26.376C1493.25 26.376 1493.89 26.6427 1494.42 27.176C1494.98 27.688 1495.25 28.3173 1495.25 29.064C1495.25 29.7893 1494.98 30.408 1494.42 30.92C1493.89 31.432 1493.25 31.688 1492.5 31.688ZM1495.87 33.96H1500.48L1502.85 41.064C1503.23 42.28 1503.49 43.1547 1503.61 43.688H1503.68C1503.81 43.1547 1504.06 42.28 1504.45 41.064L1506.81 33.96H1511.45L1505.76 49H1501.57L1495.87 33.96ZM1519.43 49.352C1517.87 49.352 1516.5 49.0107 1515.3 48.328C1514.11 47.6453 1513.18 46.7067 1512.52 45.512C1511.88 44.3173 1511.56 42.9733 1511.56 41.48C1511.56 40.008 1511.89 38.6747 1512.55 37.48C1513.21 36.264 1514.13 35.3147 1515.3 34.632C1516.48 33.9493 1517.81 33.608 1519.3 33.608C1520.8 33.608 1522.12 33.9493 1523.27 34.632C1524.45 35.3147 1525.35 36.264 1525.99 37.48C1526.65 38.6747 1526.98 40.008 1526.98 41.48C1526.98 41.9493 1526.97 42.4293 1526.95 42.92H1515.66C1515.89 43.8587 1516.33 44.5733 1516.97 45.064C1517.61 45.5547 1518.4 45.8 1519.34 45.8C1520.17 45.8 1520.83 45.6933 1521.32 45.48C1521.83 45.2667 1522.24 44.9253 1522.54 44.456H1526.54C1526.09 46.0987 1525.2 47.3253 1523.88 48.136C1522.56 48.9467 1521.07 49.352 1519.43 49.352ZM1522.95 39.976C1522.8 39.1653 1522.39 38.504 1521.7 37.992C1521.02 37.4587 1520.22 37.192 1519.3 37.192C1518.37 37.192 1517.57 37.448 1516.9 37.96C1516.26 38.4507 1515.84 39.1227 1515.62 39.976H1522.95ZM1436.76 81.256C1434.69 81.256 1433.03 80.6693 1431.8 79.496C1430.58 78.3227 1429.97 76.552 1429.97 74.184V61.192H1434.39V65.96H1438.96V69.544H1434.39V73.736C1434.39 74.632 1434.48 75.336 1434.68 75.848C1434.89 76.36 1435.26 76.744 1435.8 77C1436.33 77.256 1437.09 77.384 1438.07 77.384C1438.43 77.3627 1438.79 77.352 1439.16 77.352V81C1438.37 81.1707 1437.57 81.256 1436.76 81.256ZM1441.05 72.36C1441.05 70.4187 1441.6 68.808 1442.71 67.528C1443.84 66.248 1445.49 65.608 1447.64 65.608C1448.41 65.608 1449.12 65.6933 1449.79 65.864V69.832L1448.7 69.8C1447.57 69.8 1446.75 70.0453 1446.23 70.536C1445.72 71.0267 1445.47 71.752 1445.47 72.712V81H1441.05V72.36ZM1457.97 81.352C1456.66 81.352 1455.46 81.032 1454.35 80.392C1453.26 79.7307 1452.39 78.8027 1451.73 77.608C1451.09 76.4133 1450.77 75.0373 1450.77 73.48C1450.77 72.008 1451.11 70.6747 1451.79 69.48C1452.49 68.264 1453.46 67.3147 1454.7 66.632C1455.94 65.9493 1457.33 65.608 1458.86 65.608C1460.44 65.608 1461.84 65.9387 1463.05 66.6C1464.29 67.24 1465.25 68.1573 1465.93 69.352C1466.62 70.5467 1466.96 71.9333 1466.96 73.512V81H1463.05L1462.8 78.76C1462.33 79.5707 1461.69 80.2107 1460.88 80.68C1460.07 81.128 1459.1 81.352 1457.97 81.352ZM1458.86 77.544C1459.89 77.544 1460.76 77.2027 1461.49 76.52C1462.23 75.816 1462.61 74.8027 1462.61 73.48C1462.61 72.2853 1462.25 71.3147 1461.55 70.568C1460.85 69.8 1459.95 69.416 1458.86 69.416C1457.77 69.416 1456.88 69.8 1456.17 70.568C1455.47 71.3147 1455.12 72.2853 1455.12 73.48C1455.12 74.6747 1455.47 75.656 1456.17 76.424C1456.88 77.1707 1457.77 77.544 1458.86 77.544ZM1476.57 81.352C1475.03 81.352 1473.65 81.0107 1472.44 80.328C1471.22 79.6453 1470.26 78.7067 1469.56 77.512C1468.87 76.296 1468.53 74.952 1468.53 73.48C1468.53 72.008 1468.87 70.6747 1469.56 69.48C1470.26 68.264 1471.22 67.3147 1472.44 66.632C1473.65 65.9493 1475.03 65.608 1476.57 65.608C1478.55 65.608 1480.21 66.152 1481.56 67.24C1482.92 68.3067 1483.75 69.736 1484.05 71.528H1479.8C1479.24 70.1413 1478.2 69.448 1476.66 69.448C1475.55 69.448 1474.65 69.832 1473.94 70.6C1473.24 71.3467 1472.89 72.3067 1472.89 73.48C1472.89 74.6533 1473.24 75.624 1473.94 76.392C1474.65 77.1387 1475.55 77.512 1476.66 77.512C1478.2 77.512 1479.24 76.8187 1479.8 75.432H1484.05C1483.75 77.224 1482.92 78.664 1481.56 79.752C1480.21 80.8187 1478.55 81.352 1476.57 81.352ZM1490.87 72.744V81H1486.46V59.176H1490.87V71.752L1495.67 65.96H1500.79L1495.38 72.168L1501.11 81H1495.99L1490.87 72.744Z" fill="white"/>
<path d="M1614 6C1614 2.68629 1616.69 0 1620 0H1680.67C1702.76 0 1720.67 17.9086 1720.67 40V100.667C1720.67 103.98 1717.98 106.667 1714.67 106.667H1620C1616.69 106.667 1614 103.98 1614 100.667V6Z" fill="#57E0FF"/>
<path d="M1654.64 42.176H1669.27V46.336H1658.99V50.944H1667.86V55.04H1658.99V59.84H1669.27V64H1654.64V42.176ZM1675.39 47.264L1671.1 50.176V45.76L1676.38 42.176H1679.83V64H1675.39V47.264Z" fill="white"/>
<rect x="1614" y="143" width="106.667" height="106.667" rx="6" fill="#57E0FF"/>
<path d="M1651.64 185.176H1666.27V189.336H1655.99V193.944H1664.86V198.04H1655.99V202.84H1666.27V207H1651.64V185.176ZM1668.29 203.288L1672.26 200.408C1674.22 198.979 1675.67 197.869 1676.61 197.08C1677.57 196.269 1678.27 195.501 1678.72 194.776C1679.19 194.051 1679.43 193.261 1679.43 192.408C1679.43 191.32 1679.11 190.445 1678.47 189.784C1677.85 189.123 1677.02 188.792 1675.97 188.792C1674.73 188.792 1673.79 189.197 1673.15 190.008C1672.51 190.819 1672.17 191.843 1672.13 193.08H1667.65C1667.67 191.608 1668 190.243 1668.64 188.984C1669.28 187.725 1670.22 186.723 1671.46 185.976C1672.72 185.208 1674.22 184.824 1675.97 184.824C1678.25 184.824 1680.14 185.453 1681.63 186.712C1683.15 187.949 1683.91 189.848 1683.91 192.408C1683.91 193.923 1683.31 195.437 1682.11 196.952C1680.92 198.445 1679.36 199.875 1677.44 201.24L1675.23 202.808V202.84H1683.75V207H1668.29V203.288Z" fill="white"/>
<path d="M1772 149C1772 145.686 1774.69 143 1778 143H1872.67C1875.98 143 1878.67 145.686 1878.67 149V209.667C1878.67 231.758 1860.76 249.667 1838.67 249.667H1778C1774.69 249.667 1772 246.98 1772 243.667V149Z" fill="#57E0FF"/>
<path d="M1809.33 185.176H1823.95V189.336H1813.68V193.944H1822.54V198.04H1813.68V202.84H1823.95V207H1809.33V185.176ZM1834.36 207.352C1832.8 207.352 1831.41 207.075 1830.17 206.52C1828.93 205.965 1827.94 205.187 1827.19 204.184C1826.45 203.16 1826.02 201.987 1825.91 200.664H1830.65C1830.84 201.453 1831.26 202.115 1831.9 202.648C1832.54 203.181 1833.36 203.448 1834.36 203.448C1835.43 203.448 1836.28 203.181 1836.92 202.648C1837.58 202.115 1837.91 201.411 1837.91 200.536C1837.91 199.683 1837.54 199.021 1836.79 198.552C1836.05 198.083 1834.96 197.848 1833.53 197.848H1831.64V193.944H1833.27C1834.62 193.944 1835.61 193.72 1836.25 193.272C1836.91 192.803 1837.24 192.163 1837.24 191.352C1837.24 190.563 1836.96 189.933 1836.41 189.464C1835.86 188.973 1835.14 188.728 1834.27 188.728C1833.37 188.728 1832.64 188.984 1832.09 189.496C1831.54 190.008 1831.22 190.659 1831.13 191.448H1826.59C1826.65 190.445 1826.96 189.432 1827.51 188.408C1828.07 187.384 1828.91 186.531 1830.04 185.848C1831.19 185.165 1832.6 184.824 1834.27 184.824C1835.7 184.824 1836.95 185.08 1838.04 185.592C1839.15 186.083 1840.02 186.787 1840.63 187.704C1841.25 188.6 1841.56 189.613 1841.56 190.744C1841.56 192.067 1841.18 193.165 1840.41 194.04C1839.66 194.893 1838.84 195.459 1837.95 195.736V195.8C1839.06 196.013 1840.05 196.579 1840.92 197.496C1841.8 198.392 1842.23 199.597 1842.23 201.112C1842.23 202.328 1841.88 203.416 1841.18 204.376C1840.5 205.315 1839.56 206.051 1838.36 206.584C1837.17 207.096 1835.83 207.352 1834.36 207.352Z" fill="white"/>
<path d="M160 342C160 319.909 177.909 302 200 302H349.556C352.869 302 355.556 304.686 355.556 308V403.222C355.556 406.536 352.869 409.222 349.556 409.222H166C162.686 409.222 160 406.536 160 403.222V342Z" fill="#FD8A26"/>
<path d="M212.09 329.176H226.714V333.336H216.442V337.944H225.306V342.04H216.442V346.84H226.714V351H212.09V329.176ZM235.62 345.56L233.028 351H227.716L232.516 343.16L227.716 335.96H233.028L235.62 340.952L238.212 335.96H243.524L238.724 343.16L243.524 351H238.212L235.62 345.56ZM251.832 335.608C253.346 335.608 254.701 335.949 255.896 336.632C257.112 337.315 258.05 338.264 258.712 339.48C259.394 340.675 259.736 342.008 259.736 343.48C259.736 345.037 259.416 346.413 258.776 347.608C258.157 348.803 257.304 349.731 256.216 350.392C255.128 351.032 253.922 351.352 252.6 351.352C250.765 351.352 249.304 350.787 248.216 349.656V357.784H243.8V343.832C243.8 342.232 244.141 340.813 244.824 339.576C245.528 338.317 246.488 337.347 247.704 336.664C248.941 335.96 250.317 335.608 251.832 335.608ZM251.832 339.416C250.765 339.416 249.88 339.8 249.176 340.568C248.493 341.315 248.152 342.285 248.152 343.48C248.152 344.803 248.514 345.816 249.24 346.52C249.986 347.203 250.85 347.544 251.832 347.544C252.856 347.544 253.698 347.171 254.36 346.424C255.042 345.656 255.384 344.675 255.384 343.48C255.384 342.285 255.042 341.315 254.36 340.568C253.698 339.8 252.856 339.416 251.832 339.416ZM268.669 351.352C267.112 351.352 265.736 351.011 264.541 350.328C263.347 349.645 262.419 348.707 261.757 347.512C261.117 346.317 260.797 344.973 260.797 343.48C260.797 342.008 261.128 340.675 261.789 339.48C262.451 338.264 263.368 337.315 264.541 336.632C265.715 335.949 267.048 335.608 268.541 335.608C270.035 335.608 271.357 335.949 272.509 336.632C273.683 337.315 274.589 338.264 275.229 339.48C275.891 340.675 276.221 342.008 276.221 343.48C276.221 343.949 276.211 344.429 276.189 344.92H264.893C265.128 345.859 265.565 346.573 266.205 347.064C266.845 347.555 267.635 347.8 268.573 347.8C269.405 347.8 270.067 347.693 270.557 347.48C271.069 347.267 271.475 346.925 271.773 346.456H275.773C275.325 348.099 274.44 349.325 273.117 350.136C271.795 350.947 270.312 351.352 268.669 351.352ZM272.189 341.976C272.04 341.165 271.624 340.504 270.941 339.992C270.259 339.459 269.459 339.192 268.541 339.192C267.603 339.192 266.803 339.448 266.141 339.96C265.501 340.451 265.075 341.123 264.861 341.976H272.189ZM278.115 342.36C278.115 340.419 278.67 338.808 279.779 337.528C280.91 336.248 282.552 335.608 284.707 335.608C285.475 335.608 286.19 335.693 286.851 335.864V339.832L285.763 339.8C284.632 339.8 283.811 340.045 283.299 340.536C282.787 341.027 282.531 341.752 282.531 342.712V351H278.115V342.36ZM295.511 351.256C293.442 351.256 291.789 350.669 290.551 349.496C289.335 348.323 288.727 346.552 288.727 344.184V331.192H293.143V335.96H297.719V339.544H293.143V343.736C293.143 344.632 293.239 345.336 293.431 345.848C293.645 346.36 294.018 346.744 294.551 347C295.085 347.256 295.842 347.384 296.823 347.384C297.186 347.363 297.549 347.352 297.911 347.352V351C297.122 351.171 296.322 351.256 295.511 351.256ZM229.756 383.256C227.686 383.256 226.033 382.669 224.796 381.496C223.58 380.323 222.972 378.552 222.972 376.184V363.192H227.388V367.96H231.964V371.544H227.388V375.736C227.388 376.632 227.484 377.336 227.676 377.848C227.889 378.36 228.262 378.744 228.796 379C229.329 379.256 230.086 379.384 231.068 379.384C231.43 379.363 231.793 379.352 232.156 379.352V383C231.366 383.171 230.566 383.256 229.756 383.256ZM234.05 374.36C234.05 372.419 234.604 370.808 235.714 369.528C236.844 368.248 238.487 367.608 240.642 367.608C241.41 367.608 242.124 367.693 242.786 367.864V371.832L241.698 371.8C240.567 371.8 239.746 372.045 239.234 372.536C238.722 373.027 238.466 373.752 238.466 374.712V383H234.05V374.36ZM250.966 383.352C249.665 383.352 248.459 383.032 247.35 382.392C246.262 381.731 245.387 380.803 244.726 379.608C244.086 378.413 243.766 377.037 243.766 375.48C243.766 374.008 244.107 372.675 244.79 371.48C245.494 370.264 246.465 369.315 247.702 368.632C248.939 367.949 250.326 367.608 251.862 367.608C253.441 367.608 254.838 367.939 256.054 368.6C257.291 369.24 258.251 370.157 258.934 371.352C259.617 372.547 259.958 373.933 259.958 375.512V383H256.054L255.798 380.76C255.329 381.571 254.689 382.211 253.878 382.68C253.067 383.128 252.097 383.352 250.966 383.352ZM251.862 379.544C252.886 379.544 253.761 379.203 254.486 378.52C255.233 377.816 255.606 376.803 255.606 375.48C255.606 374.285 255.254 373.315 254.55 372.568C253.846 371.8 252.95 371.416 251.862 371.416C250.774 371.416 249.878 371.8 249.174 372.568C248.47 373.315 248.118 374.285 248.118 375.48C248.118 376.675 248.47 377.656 249.174 378.424C249.878 379.171 250.774 379.544 251.862 379.544ZM269.565 383.352C268.029 383.352 266.653 383.011 265.437 382.328C264.221 381.645 263.261 380.707 262.557 379.512C261.874 378.296 261.533 376.952 261.533 375.48C261.533 374.008 261.874 372.675 262.557 371.48C263.261 370.264 264.221 369.315 265.437 368.632C266.653 367.949 268.029 367.608 269.565 367.608C271.549 367.608 273.213 368.152 274.557 369.24C275.922 370.307 276.754 371.736 277.053 373.528H272.797C272.242 372.141 271.197 371.448 269.661 371.448C268.552 371.448 267.645 371.832 266.941 372.6C266.237 373.347 265.885 374.307 265.885 375.48C265.885 376.653 266.237 377.624 266.941 378.392C267.645 379.139 268.552 379.512 269.661 379.512C271.197 379.512 272.242 378.819 272.797 377.432H277.053C276.754 379.224 275.922 380.664 274.557 381.752C273.213 382.819 271.549 383.352 269.565 383.352ZM283.873 374.744V383H279.457V361.176H283.873V373.752L288.673 367.96H293.793L288.385 374.168L294.113 383H288.993L283.873 374.744Z" fill="white"/>
<rect x="409" y="302.556" width="106.667" height="106.667" rx="6" fill="#FD8A26"/>
<path d="M449.126 344.732H458.214C459.601 344.732 460.859 344.998 461.99 345.532C463.12 346.044 464.016 346.833 464.678 347.9C465.361 348.945 465.702 350.236 465.702 351.772C465.702 353.308 465.361 354.609 464.678 355.676C464.016 356.721 463.12 357.51 461.99 358.044C460.859 358.556 459.601 358.812 458.214 358.812H453.606V366.556H449.126V344.732ZM457.574 354.588C458.641 354.588 459.505 354.353 460.166 353.884C460.827 353.414 461.158 352.71 461.158 351.772C461.158 350.833 460.827 350.129 460.166 349.66C459.505 349.19 458.641 348.956 457.574 348.956H453.606V354.588H457.574ZM470.902 349.82L466.614 352.732V348.316L471.894 344.732H475.35V366.556H470.902V349.82Z" fill="white"/>
<rect x="569" y="302.556" width="106.667" height="106.667" rx="6" fill="#FD8A26"/>
<path d="M606.126 344.732H615.214C616.601 344.732 617.859 344.998 618.99 345.532C620.12 346.044 621.016 346.833 621.678 347.9C622.361 348.945 622.702 350.236 622.702 351.772C622.702 353.308 622.361 354.609 621.678 355.676C621.016 356.721 620.12 357.51 618.99 358.044C617.859 358.556 616.601 358.812 615.214 358.812H610.606V366.556H606.126V344.732ZM614.574 354.588C615.641 354.588 616.505 354.353 617.166 353.884C617.827 353.414 618.158 352.71 618.158 351.772C618.158 350.833 617.827 350.129 617.166 349.66C616.505 349.19 615.641 348.956 614.574 348.956H610.606V354.588H614.574ZM623.806 362.844L627.774 359.964C629.737 358.534 631.188 357.425 632.126 356.636C633.086 355.825 633.79 355.057 634.238 354.332C634.708 353.606 634.942 352.817 634.942 351.964C634.942 350.876 634.622 350.001 633.982 349.34C633.364 348.678 632.532 348.348 631.486 348.348C630.249 348.348 629.31 348.753 628.67 349.564C628.03 350.374 627.689 351.398 627.646 352.636H623.166C623.188 351.164 623.518 349.798 624.158 348.54C624.798 347.281 625.737 346.278 626.974 345.532C628.233 344.764 629.737 344.38 631.486 344.38C633.769 344.38 635.657 345.009 637.15 346.268C638.665 347.505 639.422 349.404 639.422 351.964C639.422 353.478 638.825 354.993 637.63 356.508C636.436 358.001 634.878 359.43 632.958 360.796L630.75 362.364V362.396H639.262V366.556H623.806V362.844Z" fill="white"/>
<rect x="729" y="302.556" width="106.667" height="106.667" rx="6" fill="#FD8A26"/>
<path d="M765.813 344.732H774.901C776.288 344.732 777.547 344.998 778.677 345.532C779.808 346.044 780.704 346.833 781.365 347.9C782.048 348.945 782.389 350.236 782.389 351.772C782.389 353.308 782.048 354.609 781.365 355.676C780.704 356.721 779.808 357.51 778.677 358.044C777.547 358.556 776.288 358.812 774.901 358.812H770.293V366.556H765.813V344.732ZM774.261 354.588C775.328 354.588 776.192 354.353 776.853 353.884C777.515 353.414 777.845 352.71 777.845 351.772C777.845 350.833 777.515 350.129 776.853 349.66C776.192 349.19 775.328 348.956 774.261 348.956H770.293V354.588H774.261ZM791.878 366.908C790.321 366.908 788.923 366.63 787.686 366.076C786.449 365.521 785.457 364.742 784.71 363.74C783.963 362.716 783.537 361.542 783.43 360.22H788.166C788.358 361.009 788.774 361.67 789.414 362.204C790.054 362.737 790.875 363.004 791.878 363.004C792.945 363.004 793.798 362.737 794.438 362.204C795.099 361.67 795.43 360.966 795.43 360.092C795.43 359.238 795.057 358.577 794.31 358.108C793.563 357.638 792.475 357.404 791.046 357.404H789.158V353.5H790.79C792.134 353.5 793.126 353.276 793.766 352.828C794.427 352.358 794.758 351.718 794.758 350.908C794.758 350.118 794.481 349.489 793.926 349.02C793.371 348.529 792.657 348.284 791.782 348.284C790.886 348.284 790.161 348.54 789.606 349.052C789.051 349.564 788.731 350.214 788.646 351.004H784.102C784.166 350.001 784.475 348.988 785.03 347.964C785.585 346.94 786.427 346.086 787.558 345.404C788.71 344.721 790.118 344.38 791.782 344.38C793.211 344.38 794.47 344.636 795.558 345.148C796.667 345.638 797.531 346.342 798.15 347.26C798.769 348.156 799.078 349.169 799.078 350.3C799.078 351.622 798.694 352.721 797.926 353.596C797.179 354.449 796.358 355.014 795.462 355.292V355.356C796.571 355.569 797.563 356.134 798.438 357.052C799.313 357.948 799.75 359.153 799.75 360.668C799.75 361.884 799.398 362.972 798.694 363.932C798.011 364.87 797.073 365.606 795.878 366.14C794.683 366.652 793.35 366.908 791.878 366.908Z" fill="white"/>
<rect x="889" y="302.556" width="106.667" height="106.667" rx="6" fill="#FD8A26"/>
<path d="M925.188 344.732H934.276C935.663 344.732 936.922 344.998 938.052 345.532C939.183 346.044 940.079 346.833 940.74 347.9C941.423 348.945 941.764 350.236 941.764 351.772C941.764 353.308 941.423 354.609 940.74 355.676C940.079 356.721 939.183 357.51 938.052 358.044C936.922 358.556 935.663 358.812 934.276 358.812H929.668V366.556H925.188V344.732ZM933.636 354.588C934.703 354.588 935.567 354.353 936.228 353.884C936.89 353.414 937.22 352.71 937.22 351.772C937.22 350.833 936.89 350.129 936.228 349.66C935.567 349.19 934.703 348.956 933.636 348.956H929.668V354.588H933.636ZM953.013 362.62H942.293V359.196L952.053 344.732H957.461V358.684H960.757V362.62H957.461V366.556H953.013V362.62ZM953.013 358.684V349.596H952.949C952.842 349.873 952.682 350.161 952.469 350.46L947.989 357.116C947.498 357.841 947.104 358.353 946.805 358.652V358.684H953.013Z" fill="white"/>
<rect x="1049" y="302.556" width="106.667" height="106.667" rx="6" fill="#FD8A26"/>
<path d="M1085.74 344.732H1094.82C1096.21 344.732 1097.47 344.998 1098.6 345.532C1099.73 346.044 1100.63 346.833 1101.29 347.9C1101.97 348.945 1102.31 350.236 1102.31 351.772C1102.31 353.308 1101.97 354.609 1101.29 355.676C1100.63 356.721 1099.73 357.51 1098.6 358.044C1097.47 358.556 1096.21 358.812 1094.82 358.812H1090.22V366.556H1085.74V344.732ZM1094.18 354.588C1095.25 354.588 1096.11 354.353 1096.78 353.884C1097.44 353.414 1097.77 352.71 1097.77 351.772C1097.77 350.833 1097.44 350.129 1096.78 349.66C1096.11 349.19 1095.25 348.956 1094.18 348.956H1090.22V354.588H1094.18ZM1112.15 366.908C1109.81 366.908 1107.9 366.353 1106.42 365.244C1104.97 364.134 1104.1 362.534 1103.8 360.444H1108.5C1108.67 361.169 1109.08 361.788 1109.72 362.3C1110.36 362.812 1111.16 363.068 1112.12 363.068C1113.17 363.068 1114.04 362.726 1114.74 362.044C1115.45 361.361 1115.8 360.454 1115.8 359.324C1115.8 358.172 1115.47 357.286 1114.81 356.668C1114.15 356.028 1113.34 355.708 1112.38 355.708C1111.71 355.708 1111.14 355.836 1110.65 356.092C1110.16 356.348 1109.7 356.71 1109.27 357.18H1104.38L1106.46 344.732H1119.06V348.828H1109.91L1109.18 353.212H1109.24C1109.73 352.87 1110.31 352.593 1110.97 352.38C1111.65 352.145 1112.57 352.028 1113.72 352.028C1114.79 352.028 1115.82 352.294 1116.82 352.828C1117.83 353.361 1118.64 354.161 1119.26 355.228C1119.9 356.273 1120.22 357.521 1120.22 358.972C1120.22 360.742 1119.83 362.225 1119.06 363.42C1118.32 364.614 1117.33 365.5 1116.09 366.076C1114.87 366.63 1113.56 366.908 1112.15 366.908Z" fill="white"/>
<rect x="1209" y="302" width="106.667" height="106.667" rx="6" fill="#FD8A26"/>
<path d="M1246.45 344.176H1255.54C1256.93 344.176 1258.19 344.443 1259.32 344.976C1260.45 345.488 1261.34 346.277 1262.01 347.344C1262.69 348.389 1263.03 349.68 1263.03 351.216C1263.03 352.752 1262.69 354.053 1262.01 355.12C1261.34 356.165 1260.45 356.955 1259.32 357.488C1258.19 358 1256.93 358.256 1255.54 358.256H1250.93V366H1246.45V344.176ZM1254.9 354.032C1255.97 354.032 1256.83 353.797 1257.49 353.328C1258.16 352.859 1258.49 352.155 1258.49 351.216C1258.49 350.277 1258.16 349.573 1257.49 349.104C1256.83 348.635 1255.97 348.4 1254.9 348.4H1250.93V354.032H1254.9ZM1271.91 366.352C1270.44 366.352 1269.12 366.043 1267.94 365.424C1266.79 364.784 1265.88 363.92 1265.22 362.832C1264.58 361.723 1264.26 360.485 1264.26 359.12C1264.26 358.075 1264.42 357.072 1264.74 356.112C1265.06 355.131 1265.66 353.968 1266.53 352.624L1272.01 344.176H1277.22L1271.14 352.528L1271.21 352.592C1271.68 352.293 1272.29 352.144 1273.06 352.144C1274.15 352.144 1275.2 352.421 1276.2 352.976C1277.2 353.509 1278.01 354.288 1278.63 355.312C1279.25 356.336 1279.56 357.541 1279.56 358.928C1279.56 360.357 1279.23 361.637 1278.57 362.768C1277.93 363.877 1277.02 364.752 1275.85 365.392C1274.69 366.032 1273.38 366.352 1271.91 366.352ZM1271.91 362.48C1272.91 362.48 1273.72 362.171 1274.34 361.552C1274.96 360.912 1275.27 360.101 1275.27 359.12C1275.27 358.117 1274.95 357.296 1274.31 356.656C1273.69 356.016 1272.89 355.696 1271.91 355.696C1270.93 355.696 1270.12 356.016 1269.48 356.656C1268.86 357.296 1268.55 358.117 1268.55 359.12C1268.55 360.101 1268.86 360.912 1269.48 361.552C1270.12 362.171 1270.93 362.48 1271.91 362.48Z" fill="white"/>
<rect x="1369" y="302" width="106.667" height="106.667" rx="6" fill="#FD8A26"/>
<path d="M1407.19 344.176H1416.28C1417.66 344.176 1418.92 344.443 1420.05 344.976C1421.18 345.488 1422.08 346.277 1422.74 347.344C1423.42 348.389 1423.76 349.68 1423.76 351.216C1423.76 352.752 1423.42 354.053 1422.74 355.12C1422.08 356.165 1421.18 356.955 1420.05 357.488C1418.92 358 1417.66 358.256 1416.28 358.256H1411.67V366H1407.19V344.176ZM1415.64 354.032C1416.7 354.032 1417.57 353.797 1418.23 353.328C1418.89 352.859 1419.22 352.155 1419.22 351.216C1419.22 350.277 1418.89 349.573 1418.23 349.104C1417.57 348.635 1416.7 348.4 1415.64 348.4H1411.67V354.032H1415.64ZM1433.76 349.328C1433.94 348.987 1434.13 348.667 1434.34 348.368L1434.31 348.336H1424.23V344.176H1439.14V347.952L1430.24 366H1425.51L1433.76 349.328Z" fill="white"/>
<path d="M1529 308C1529 304.686 1531.69 302 1535 302H1629.67C1632.98 302 1635.67 304.686 1635.67 308V368.667C1635.67 390.758 1617.76 408.667 1595.67 408.667H1535C1531.69 408.667 1529 405.98 1529 402.667V308Z" fill="#FD8A26"/>
<path d="M1565.88 344.176H1574.96C1576.35 344.176 1577.61 344.443 1578.74 344.976C1579.87 345.488 1580.77 346.277 1581.43 347.344C1582.11 348.389 1582.45 349.68 1582.45 351.216C1582.45 352.752 1582.11 354.053 1581.43 355.12C1580.77 356.165 1579.87 356.955 1578.74 357.488C1577.61 358 1576.35 358.256 1574.96 358.256H1570.36V366H1565.88V344.176ZM1574.32 354.032C1575.39 354.032 1576.25 353.797 1576.92 353.328C1577.58 352.859 1577.91 352.155 1577.91 351.216C1577.91 350.277 1577.58 349.573 1576.92 349.104C1576.25 348.635 1575.39 348.4 1574.32 348.4H1570.36V354.032H1574.32ZM1591.68 366.352C1590.23 366.352 1588.9 366.075 1587.68 365.52C1586.47 364.944 1585.5 364.165 1584.77 363.184C1584.05 362.181 1583.68 361.061 1583.68 359.824C1583.68 358.843 1583.9 357.968 1584.32 357.2C1584.75 356.411 1585.28 355.771 1585.92 355.28C1586.59 354.768 1587.26 354.427 1587.94 354.256V354.192C1587.13 353.872 1586.39 353.317 1585.73 352.528C1585.07 351.717 1584.74 350.736 1584.74 349.584C1584.74 348.539 1585.02 347.579 1585.57 346.704C1586.15 345.829 1586.96 345.136 1588 344.624C1589.05 344.091 1590.28 343.824 1591.68 343.824C1593.09 343.824 1594.32 344.091 1595.36 344.624C1596.41 345.136 1597.21 345.829 1597.76 346.704C1598.34 347.579 1598.63 348.539 1598.63 349.584C1598.63 350.736 1598.3 351.717 1597.64 352.528C1596.98 353.317 1596.24 353.872 1595.43 354.192V354.256C1596.11 354.427 1596.77 354.768 1597.41 355.28C1598.07 355.771 1598.62 356.411 1599.04 357.2C1599.47 357.968 1599.68 358.843 1599.68 359.824C1599.68 361.061 1599.32 362.181 1598.6 363.184C1597.87 364.165 1596.9 364.944 1595.68 365.52C1594.47 366.075 1593.14 366.352 1591.68 366.352ZM1591.68 362.576C1592.64 362.576 1593.48 362.288 1594.18 361.712C1594.88 361.136 1595.24 360.357 1595.24 359.376C1595.24 358.48 1594.9 357.733 1594.21 357.136C1593.55 356.539 1592.71 356.24 1591.68 356.24C1590.66 356.24 1589.81 356.539 1589.12 357.136C1588.46 357.733 1588.13 358.48 1588.13 359.376C1588.13 360.357 1588.48 361.136 1589.19 361.712C1589.89 362.288 1590.72 362.576 1591.68 362.576ZM1591.68 352.464C1592.43 352.464 1593.06 352.219 1593.57 351.728C1594.08 351.237 1594.34 350.64 1594.34 349.936C1594.34 349.232 1594.08 348.635 1593.57 348.144C1593.08 347.653 1592.45 347.408 1591.68 347.408C1590.92 347.408 1590.28 347.653 1589.76 348.144C1589.27 348.635 1589.03 349.232 1589.03 349.936C1589.03 350.64 1589.28 351.237 1589.8 351.728C1590.31 352.219 1590.94 352.464 1591.68 352.464Z" fill="white"/>
<path d="M1580.83 298C1580.83 298.828 1581.5 299.5 1582.33 299.5C1583.16 299.5 1583.83 298.828 1583.83 298H1582.33H1580.83ZM1595 67.2585C1595 68.0869 1596.01 68.6727 1596.73 68.2585L1608.27 61.5982C1608.99 61.184 1608.99 60.0124 1608.27 59.5982L1596.73 52.938C1596.01 52.5237 1595 53.1095 1595 53.938V67.2585ZM1582.33 298H1583.83V84.5982H1582.33H1580.83V298H1582.33ZM1582.33 84.5982H1583.83C1583.83 72.1718 1593.91 62.0982 1606.33 62.0982V60.5982V59.0982C1592.25 59.0982 1580.83 70.5149 1580.83 84.5982H1582.33Z" fill="url(#paint0_linear_6_257)"/>
<path d="M1428.37 298C1428.37 298.828 1429.04 299.5 1429.87 299.5C1430.7 299.5 1431.37 298.828 1431.37 298H1429.87H1428.37ZM1504.99 269.982C1505.78 270.234 1506.65 269.446 1506.47 268.637L1503.64 255.621C1503.46 254.811 1502.35 254.455 1501.73 255.012L1491.88 263.973C1491.26 264.53 1491.51 265.675 1492.3 265.927L1504.99 269.982ZM1452.03 275.833V277.333H1481.05V275.833V274.333H1452.03V275.833ZM1481.05 275.833V277.333C1489 277.333 1496.04 273.409 1500.32 267.398L1499.1 266.527L1497.88 265.656C1494.13 270.912 1487.99 274.333 1481.05 274.333V275.833ZM1429.87 298H1431.37C1431.37 286.586 1440.62 277.333 1452.03 277.333V275.833V274.333C1438.96 274.333 1428.37 284.929 1428.37 298H1429.87Z" fill="url(#paint1_linear_6_257)"/>
<path d="M1268.12 298C1268.12 298.828 1268.79 299.5 1269.62 299.5C1270.45 299.5 1271.12 298.828 1271.12 298H1269.62H1268.12ZM1345.6 269.982C1346.39 270.234 1347.26 269.446 1347.08 268.637L1344.25 255.621C1344.07 254.811 1342.96 254.455 1342.35 255.012L1332.49 263.973C1331.88 264.53 1332.13 265.675 1332.91 265.927L1345.6 269.982ZM1291.78 275.833V277.333H1321.66V275.833V274.333H1291.78V275.833ZM1321.66 275.833V277.333C1329.61 277.333 1336.65 273.409 1340.94 267.398L1339.71 266.527L1338.49 265.656C1334.74 270.912 1328.6 274.333 1321.66 274.333V275.833ZM1269.62 298H1271.12C1271.12 286.586 1280.37 277.333 1291.78 277.333V275.833V274.333C1278.71 274.333 1268.12 284.929 1268.12 298H1269.62Z" fill="url(#paint2_linear_6_257)"/>
<path d="M1109.26 298.556C1109.26 299.384 1109.93 300.056 1110.76 300.056C1111.59 300.056 1112.26 299.384 1112.26 298.556H1110.76H1109.26ZM1187.34 269.975C1188.13 270.224 1188.99 269.432 1188.81 268.624L1185.93 255.619C1185.75 254.81 1184.63 254.458 1184.02 255.018L1174.2 264.018C1173.59 264.578 1173.84 265.722 1174.63 265.971L1187.34 269.975ZM1133.2 276.111V277.611H1163.05V276.111V274.611H1133.2V276.111ZM1163.05 276.111V277.611C1171.17 277.611 1178.34 273.573 1182.67 267.404L1181.44 266.542L1180.21 265.681C1176.42 271.084 1170.15 274.611 1163.05 274.611V276.111ZM1110.76 298.556H1112.26C1112.26 286.988 1121.64 277.611 1133.2 277.611V276.111V274.611C1119.98 274.611 1109.26 285.331 1109.26 298.556H1110.76Z" fill="url(#paint3_linear_6_257)"/>
<path d="M949.357 298.556C949.357 299.384 950.028 300.056 950.857 300.056C951.685 300.056 952.357 299.384 952.357 298.556H950.857H949.357ZM1027.09 269.975C1027.88 270.224 1028.74 269.432 1028.56 268.624L1025.68 255.619C1025.5 254.81 1024.38 254.458 1023.77 255.018L1013.95 264.018C1013.34 264.578 1013.59 265.722 1014.38 265.971L1027.09 269.975ZM973.301 276.111V277.611H1002.8V276.111V274.611H973.301V276.111ZM1002.8 276.111V277.611C1010.92 277.611 1018.09 273.573 1022.42 267.404L1021.19 266.542L1019.96 265.681C1016.17 271.084 1009.9 274.611 1002.8 274.611V276.111ZM950.857 298.556H952.357C952.357 286.988 961.734 277.611 973.301 277.611V276.111V274.611C960.077 274.611 949.357 285.331 949.357 298.556H950.857Z" fill="url(#paint4_linear_6_257)"/>
<path d="M786.947 298.556C786.947 299.384 787.619 300.056 788.447 300.056C789.275 300.056 789.947 299.384 789.947 298.556H788.447H786.947ZM867.684 269.975C868.474 270.224 869.338 269.432 869.158 268.624L866.274 255.619C866.095 254.81 864.977 254.458 864.366 255.018L854.546 264.018C853.936 264.578 854.189 265.722 854.98 265.971L867.684 269.975ZM810.891 276.111V277.611H843.396V276.111V274.611H810.891V276.111ZM843.396 276.111V277.611C851.511 277.611 858.682 273.573 863.011 267.404L861.783 266.542L860.555 265.681C856.764 271.084 850.492 274.611 843.396 274.611V276.111ZM788.447 298.556H789.947C789.947 286.988 799.324 277.611 810.891 277.611V276.111V274.611C797.667 274.611 786.947 285.331 786.947 298.556H788.447Z" fill="url(#paint5_linear_6_257)"/>
<path d="M620.833 298.556C620.833 299.384 621.505 300.056 622.333 300.056C623.162 300.056 623.833 299.384 623.833 298.556H622.333H620.833ZM706.065 269.975C706.855 270.224 707.719 269.432 707.54 268.624L704.655 255.619C704.476 254.81 703.358 254.458 702.748 255.018L692.928 264.018C692.317 264.578 692.571 265.722 693.361 265.971L706.065 269.975ZM644.778 276.111V277.611H681.778V276.111V274.611H644.778V276.111ZM681.778 276.111V277.611C689.892 277.611 697.064 273.573 701.392 267.404L700.164 266.542L698.936 265.681C695.145 271.084 688.873 274.611 681.778 274.611V276.111ZM622.333 298.556H623.833C623.833 286.988 633.21 277.611 644.778 277.611V276.111V274.611C631.554 274.611 620.833 285.331 620.833 298.556H622.333Z" fill="url(#paint6_linear_6_257)"/>
<path d="M409 183C409 160.909 426.909 143 449 143H598.556C601.869 143 604.556 145.686 604.556 149V244.333C604.556 247.647 601.869 250.333 598.556 250.333H415C411.686 250.333 409 247.647 409 244.333V183Z" fill="#8E71F4"/>
<path d="M442.457 170.176H448.409L453.529 182.656C454.147 184.213 454.563 185.355 454.777 186.08H454.841C455.054 185.355 455.47 184.213 456.089 182.656L461.209 170.176H467.161V192H462.681V178.208C462.681 177.653 462.702 177.195 462.745 176.832H462.681C462.574 177.28 462.403 177.781 462.169 178.336L456.569 191.744H453.049L447.449 178.336C447.214 177.781 447.043 177.28 446.937 176.832H446.873C446.915 177.195 446.937 177.653 446.937 178.208V192H442.457V170.176ZM476.767 192.352C475.466 192.352 474.261 192.032 473.151 191.392C472.063 190.731 471.189 189.803 470.527 188.608C469.887 187.413 469.567 186.037 469.567 184.48C469.567 183.008 469.909 181.675 470.591 180.48C471.295 179.264 472.266 178.315 473.503 177.632C474.741 176.949 476.127 176.608 477.663 176.608C479.242 176.608 480.639 176.939 481.855 177.6C483.093 178.24 484.053 179.157 484.735 180.352C485.418 181.547 485.759 182.933 485.759 184.512V192H481.855L481.599 189.76C481.13 190.571 480.49 191.211 479.679 191.68C478.869 192.128 477.898 192.352 476.767 192.352ZM477.663 188.544C478.687 188.544 479.562 188.203 480.287 187.52C481.034 186.816 481.407 185.803 481.407 184.48C481.407 183.285 481.055 182.315 480.351 181.568C479.647 180.8 478.751 180.416 477.663 180.416C476.575 180.416 475.679 180.8 474.975 181.568C474.271 182.315 473.919 183.285 473.919 184.48C473.919 185.675 474.271 186.656 474.975 187.424C475.679 188.171 476.575 188.544 477.663 188.544ZM488.166 183.584C488.166 181.493 488.796 179.819 490.054 178.56C491.313 177.28 493.084 176.629 495.366 176.608C497.649 176.629 499.42 177.28 500.678 178.56C501.937 179.819 502.566 181.493 502.566 183.584V192H498.15V183.904C498.15 182.837 497.916 182.005 497.446 181.408C496.977 180.789 496.284 180.469 495.366 180.448C494.449 180.469 493.756 180.789 493.286 181.408C492.817 182.005 492.582 182.837 492.582 183.904V192H488.166V183.584ZM511.645 192.352C510.344 192.352 509.138 192.032 508.029 191.392C506.941 190.731 506.066 189.803 505.405 188.608C504.765 187.413 504.445 186.037 504.445 184.48C504.445 183.008 504.786 181.675 505.469 180.48C506.173 179.264 507.144 178.315 508.381 177.632C509.618 176.949 511.005 176.608 512.541 176.608C514.12 176.608 515.517 176.939 516.733 177.6C517.97 178.24 518.93 179.157 519.613 180.352C520.296 181.547 520.637 182.933 520.637 184.512V192H516.733L516.477 189.76C516.008 190.571 515.368 191.211 514.557 191.68C513.746 192.128 512.776 192.352 511.645 192.352ZM512.541 188.544C513.565 188.544 514.44 188.203 515.165 187.52C515.912 186.816 516.285 185.803 516.285 184.48C516.285 183.285 515.933 182.315 515.229 181.568C514.525 180.8 513.629 180.416 512.541 180.416C511.453 180.416 510.557 180.8 509.853 181.568C509.149 182.315 508.797 183.285 508.797 184.48C508.797 185.675 509.149 186.656 509.853 187.424C510.557 188.171 511.453 188.544 512.541 188.544ZM530.34 198.688C528.271 198.688 526.564 198.155 525.22 197.088C523.897 196.021 523.087 194.624 522.788 192.896H527.044C527.257 193.515 527.641 194.027 528.196 194.432C528.751 194.837 529.465 195.04 530.34 195.04C532.815 195.04 534.052 193.504 534.052 190.432V189.76C533.071 191.36 531.503 192.16 529.348 192.16C528.047 192.16 526.852 191.84 525.764 191.2C524.676 190.56 523.812 189.653 523.172 188.48C522.532 187.307 522.212 185.963 522.212 184.448C522.212 182.976 522.553 181.643 523.236 180.448C523.94 179.253 524.9 178.315 526.116 177.632C527.332 176.949 528.708 176.608 530.244 176.608C531.78 176.608 533.135 176.96 534.308 177.664C535.481 178.347 536.388 179.317 537.028 180.576C537.689 181.813 538.02 183.221 538.02 184.8V190.016C538.02 192.021 537.647 193.675 536.9 194.976C536.175 196.277 535.225 197.216 534.052 197.792C532.9 198.389 531.663 198.688 530.34 198.688ZM530.244 188.48C531.225 188.48 532.079 188.139 532.804 187.456C533.551 186.752 533.924 185.749 533.924 184.448C533.924 183.275 533.572 182.315 532.868 181.568C532.185 180.8 531.311 180.416 530.244 180.416C529.177 180.416 528.292 180.8 527.588 181.568C526.905 182.315 526.564 183.275 526.564 184.448C526.564 185.621 526.905 186.592 527.588 187.36C528.292 188.107 529.177 188.48 530.244 188.48ZM547.445 192.352C545.887 192.352 544.511 192.011 543.317 191.328C542.122 190.645 541.194 189.707 540.533 188.512C539.893 187.317 539.573 185.973 539.573 184.48C539.573 183.008 539.903 181.675 540.565 180.48C541.226 179.264 542.143 178.315 543.317 177.632C544.49 176.949 545.823 176.608 547.317 176.608C548.81 176.608 550.133 176.949 551.285 177.632C552.458 178.315 553.365 179.264 554.005 180.48C554.666 181.675 554.997 183.008 554.997 184.48C554.997 184.949 554.986 185.429 554.965 185.92H543.669C543.903 186.859 544.341 187.573 544.981 188.064C545.621 188.555 546.41 188.8 547.349 188.8C548.181 188.8 548.842 188.693 549.333 188.48C549.845 188.267 550.25 187.925 550.549 187.456H554.549C554.101 189.099 553.215 190.325 551.893 191.136C550.57 191.947 549.087 192.352 547.445 192.352ZM550.965 182.976C550.815 182.165 550.399 181.504 549.717 180.992C549.034 180.459 548.234 180.192 547.317 180.192C546.378 180.192 545.578 180.448 544.917 180.96C544.277 181.451 543.85 182.123 543.637 182.976H550.965ZM556.891 183.36C556.891 181.419 557.445 179.808 558.555 178.528C559.685 177.248 561.328 176.608 563.483 176.608C564.251 176.608 564.965 176.693 565.627 176.864V180.832L564.539 180.8C563.408 180.8 562.587 181.045 562.075 181.536C561.563 182.027 561.307 182.752 561.307 183.712V192H556.891V183.36ZM478.756 224.256C476.686 224.256 475.033 223.669 473.796 222.496C472.58 221.323 471.972 219.552 471.972 217.184V204.192H476.388V208.96H480.964V212.544H476.388V216.736C476.388 217.632 476.484 218.336 476.676 218.848C476.889 219.36 477.262 219.744 477.796 220C478.329 220.256 479.086 220.384 480.068 220.384C480.43 220.363 480.793 220.352 481.156 220.352V224C480.366 224.171 479.566 224.256 478.756 224.256ZM483.05 215.36C483.05 213.419 483.604 211.808 484.714 210.528C485.844 209.248 487.487 208.608 489.642 208.608C490.41 208.608 491.124 208.693 491.786 208.864V212.832L490.698 212.8C489.567 212.8 488.746 213.045 488.234 213.536C487.722 214.027 487.466 214.752 487.466 215.712V224H483.05V215.36ZM499.966 224.352C498.665 224.352 497.459 224.032 496.35 223.392C495.262 222.731 494.387 221.803 493.726 220.608C493.086 219.413 492.766 218.037 492.766 216.48C492.766 215.008 493.107 213.675 493.79 212.48C494.494 211.264 495.465 210.315 496.702 209.632C497.939 208.949 499.326 208.608 500.862 208.608C502.441 208.608 503.838 208.939 505.054 209.6C506.291 210.24 507.251 211.157 507.934 212.352C508.617 213.547 508.958 214.933 508.958 216.512V224H505.054L504.798 221.76C504.329 222.571 503.689 223.211 502.878 223.68C502.067 224.128 501.097 224.352 499.966 224.352ZM500.862 220.544C501.886 220.544 502.761 220.203 503.486 219.52C504.233 218.816 504.606 217.803 504.606 216.48C504.606 215.285 504.254 214.315 503.55 213.568C502.846 212.8 501.95 212.416 500.862 212.416C499.774 212.416 498.878 212.8 498.174 213.568C497.47 214.315 497.118 215.285 497.118 216.48C497.118 217.675 497.47 218.656 498.174 219.424C498.878 220.171 499.774 220.544 500.862 220.544ZM518.565 224.352C517.029 224.352 515.653 224.011 514.437 223.328C513.221 222.645 512.261 221.707 511.557 220.512C510.874 219.296 510.533 217.952 510.533 216.48C510.533 215.008 510.874 213.675 511.557 212.48C512.261 211.264 513.221 210.315 514.437 209.632C515.653 208.949 517.029 208.608 518.565 208.608C520.549 208.608 522.213 209.152 523.557 210.24C524.922 211.307 525.754 212.736 526.053 214.528H521.797C521.242 213.141 520.197 212.448 518.661 212.448C517.552 212.448 516.645 212.832 515.941 213.6C515.237 214.347 514.885 215.307 514.885 216.48C514.885 217.653 515.237 218.624 515.941 219.392C516.645 220.139 517.552 220.512 518.661 220.512C520.197 220.512 521.242 219.819 521.797 218.432H526.053C525.754 220.224 524.922 221.664 523.557 222.752C522.213 223.819 520.549 224.352 518.565 224.352ZM532.873 215.744V224H528.457V202.176H532.873V214.752L537.673 208.96H542.793L537.385 215.168L543.113 224H537.993L532.873 215.744Z" fill="white"/>
<rect x="658" y="143" width="106.667" height="106.667" rx="6" fill="#8E71F4"/>
<path d="M693.251 185.176H699.203L704.323 197.656C704.942 199.213 705.358 200.355 705.571 201.08H705.635C705.848 200.355 706.264 199.213 706.883 197.656L712.003 185.176H717.955V207H713.475V193.208C713.475 192.653 713.496 192.195 713.539 191.832H713.475C713.368 192.28 713.198 192.781 712.963 193.336L707.363 206.744H703.843L698.243 193.336C698.008 192.781 697.837 192.28 697.731 191.832H697.667C697.709 192.195 697.731 192.653 697.731 193.208V207H693.251V185.176ZM724.777 190.264L720.489 193.176V188.76L725.769 185.176H729.225V207H724.777V190.264Z" fill="white"/>
<rect x="818" y="143" width="106.667" height="106.667" rx="6" fill="#8E71F4"/>
<path d="M850.251 185.176H856.203L861.323 197.656C861.942 199.213 862.358 200.355 862.571 201.08H862.635C862.848 200.355 863.264 199.213 863.883 197.656L869.003 185.176H874.955V207H870.475V193.208C870.475 192.653 870.496 192.195 870.539 191.832H870.475C870.368 192.28 870.198 192.781 869.963 193.336L864.363 206.744H860.843L855.243 193.336C855.008 192.781 854.837 192.28 854.731 191.832H854.667C854.709 192.195 854.731 192.653 854.731 193.208V207H850.251V185.176ZM877.681 203.288L881.649 200.408C883.612 198.979 885.063 197.869 886.001 197.08C886.961 196.269 887.665 195.501 888.113 194.776C888.583 194.051 888.817 193.261 888.817 192.408C888.817 191.32 888.497 190.445 887.857 189.784C887.239 189.123 886.407 188.792 885.361 188.792C884.124 188.792 883.185 189.197 882.545 190.008C881.905 190.819 881.564 191.843 881.521 193.08H877.041C877.063 191.608 877.393 190.243 878.033 188.984C878.673 187.725 879.612 186.723 880.849 185.976C882.108 185.208 883.612 184.824 885.361 184.824C887.644 184.824 889.532 185.453 891.025 186.712C892.54 187.949 893.297 189.848 893.297 192.408C893.297 193.923 892.7 195.437 891.505 196.952C890.311 198.445 888.753 199.875 886.833 201.24L884.625 202.808V202.84H893.137V207H877.681V203.288Z" fill="white"/>
<rect x="978" y="143" width="106.667" height="106.667" rx="6" fill="#8E71F4"/>
<path d="M1009.94 185.176H1015.89L1021.01 197.656C1021.63 199.213 1022.05 200.355 1022.26 201.08H1022.32C1022.54 200.355 1022.95 199.213 1023.57 197.656L1028.69 185.176H1034.64V207H1030.16V193.208C1030.16 192.653 1030.18 192.195 1030.23 191.832H1030.16C1030.06 192.28 1029.89 192.781 1029.65 193.336L1024.05 206.744H1020.53L1014.93 193.336C1014.7 192.781 1014.52 192.28 1014.42 191.832H1014.35C1014.4 192.195 1014.42 192.653 1014.42 193.208V207H1009.94V185.176ZM1045.75 207.352C1044.2 207.352 1042.8 207.075 1041.56 206.52C1040.32 205.965 1039.33 205.187 1038.58 204.184C1037.84 203.16 1037.41 201.987 1037.3 200.664H1042.04C1042.23 201.453 1042.65 202.115 1043.29 202.648C1043.93 203.181 1044.75 203.448 1045.75 203.448C1046.82 203.448 1047.67 203.181 1048.31 202.648C1048.97 202.115 1049.3 201.411 1049.3 200.536C1049.3 199.683 1048.93 199.021 1048.18 198.552C1047.44 198.083 1046.35 197.848 1044.92 197.848H1043.03V193.944H1044.66C1046.01 193.944 1047 193.72 1047.64 193.272C1048.3 192.803 1048.63 192.163 1048.63 191.352C1048.63 190.563 1048.36 189.933 1047.8 189.464C1047.25 188.973 1046.53 188.728 1045.66 188.728C1044.76 188.728 1044.04 188.984 1043.48 189.496C1042.93 190.008 1042.61 190.659 1042.52 191.448H1037.98C1038.04 190.445 1038.35 189.432 1038.9 188.408C1039.46 187.384 1040.3 186.531 1041.43 185.848C1042.58 185.165 1043.99 184.824 1045.66 184.824C1047.09 184.824 1048.34 185.08 1049.43 185.592C1050.54 186.083 1051.41 186.787 1052.02 187.704C1052.64 188.6 1052.95 189.613 1052.95 190.744C1052.95 192.067 1052.57 193.165 1051.8 194.04C1051.05 194.893 1050.23 195.459 1049.34 195.736V195.8C1050.45 196.013 1051.44 196.579 1052.31 197.496C1053.19 198.392 1053.62 199.597 1053.62 201.112C1053.62 202.328 1053.27 203.416 1052.57 204.376C1051.89 205.315 1050.95 206.051 1049.75 206.584C1048.56 207.096 1047.22 207.352 1045.75 207.352Z" fill="white"/>
<rect x="1138" y="143" width="106.667" height="106.667" rx="6" fill="#8E71F4"/>
<path d="M1169.31 185.176H1175.27L1180.39 197.656C1181 199.213 1181.42 200.355 1181.63 201.08H1181.7C1181.91 200.355 1182.33 199.213 1182.95 197.656L1188.07 185.176H1194.02V207H1189.54V193.208C1189.54 192.653 1189.56 192.195 1189.6 191.832H1189.54C1189.43 192.28 1189.26 192.781 1189.03 193.336L1183.43 206.744H1179.91L1174.31 193.336C1174.07 192.781 1173.9 192.28 1173.79 191.832H1173.73C1173.77 192.195 1173.79 192.653 1173.79 193.208V207H1169.31V185.176ZM1206.89 203.064H1196.17V199.64L1205.93 185.176H1211.34V199.128H1214.63V203.064H1211.34V207H1206.89V203.064ZM1206.89 199.128V190.04H1206.82C1206.72 190.317 1206.56 190.605 1206.34 190.904L1201.86 197.56C1201.37 198.285 1200.98 198.797 1200.68 199.096V199.128H1206.89Z" fill="white"/>
<rect x="1298" y="143" width="106.667" height="106.667" rx="6" fill="#8E71F4"/>
<path d="M1329.86 185.176H1335.81L1340.93 197.656C1341.55 199.213 1341.97 200.355 1342.18 201.08H1342.24C1342.46 200.355 1342.87 199.213 1343.49 197.656L1348.61 185.176H1354.56V207H1350.08V193.208C1350.08 192.653 1350.11 192.195 1350.15 191.832H1350.08C1349.98 192.28 1349.81 192.781 1349.57 193.336L1343.97 206.744H1340.45L1334.85 193.336C1334.62 192.781 1334.45 192.28 1334.34 191.832H1334.28C1334.32 192.195 1334.34 192.653 1334.34 193.208V207H1329.86V185.176ZM1366.03 207.352C1363.68 207.352 1361.77 206.797 1360.3 205.688C1358.85 204.579 1357.97 202.979 1357.67 200.888H1362.38C1362.55 201.613 1362.95 202.232 1363.59 202.744C1364.23 203.256 1365.03 203.512 1365.99 203.512C1367.04 203.512 1367.91 203.171 1368.62 202.488C1369.32 201.805 1369.67 200.899 1369.67 199.768C1369.67 198.616 1369.34 197.731 1368.68 197.112C1368.02 196.472 1367.21 196.152 1366.25 196.152C1365.59 196.152 1365.01 196.28 1364.52 196.536C1364.03 196.792 1363.57 197.155 1363.15 197.624H1358.25L1360.33 185.176H1372.94V189.272H1363.79L1363.05 193.656H1363.11C1363.61 193.315 1364.18 193.037 1364.84 192.824C1365.53 192.589 1366.44 192.472 1367.59 192.472C1368.66 192.472 1369.7 192.739 1370.7 193.272C1371.7 193.805 1372.51 194.605 1373.13 195.672C1373.77 196.717 1374.09 197.965 1374.09 199.416C1374.09 201.187 1373.71 202.669 1372.94 203.864C1372.19 205.059 1371.2 205.944 1369.96 206.52C1368.75 207.075 1367.43 207.352 1366.03 207.352Z" fill="white"/>
<path d="M1456 149C1456 145.686 1458.69 143 1462 143H1556.67C1559.98 143 1562.67 145.686 1562.67 149V209.667C1562.67 231.758 1544.76 249.667 1522.67 249.667H1462C1458.69 249.667 1456 246.98 1456 243.667V149Z" fill="#8E71F4"/>
<path d="M1488.58 185.176H1494.53L1499.65 197.656C1500.27 199.213 1500.69 200.355 1500.9 201.08H1500.96C1501.18 200.355 1501.59 199.213 1502.21 197.656L1507.33 185.176H1513.28V207H1508.8V193.208C1508.8 192.653 1508.82 192.195 1508.87 191.832H1508.8C1508.7 192.28 1508.53 192.781 1508.29 193.336L1502.69 206.744H1499.17L1493.57 193.336C1493.34 192.781 1493.17 192.28 1493.06 191.832H1492.99C1493.04 192.195 1493.06 192.653 1493.06 193.208V207H1488.58V185.176ZM1523.79 207.352C1522.31 207.352 1520.99 207.043 1519.82 206.424C1518.67 205.784 1517.76 204.92 1517.1 203.832C1516.46 202.723 1516.14 201.485 1516.14 200.12C1516.14 199.075 1516.3 198.072 1516.62 197.112C1516.94 196.131 1517.53 194.968 1518.41 193.624L1523.88 185.176H1529.1L1523.02 193.528L1523.08 193.592C1523.55 193.293 1524.17 193.144 1524.94 193.144C1526.03 193.144 1527.07 193.421 1528.07 193.976C1529.08 194.509 1529.89 195.288 1530.51 196.312C1531.12 197.336 1531.43 198.541 1531.43 199.928C1531.43 201.357 1531.1 202.637 1530.44 203.768C1529.8 204.877 1528.89 205.752 1527.72 206.392C1526.57 207.032 1525.26 207.352 1523.79 207.352ZM1523.79 203.48C1524.79 203.48 1525.6 203.171 1526.22 202.552C1526.84 201.912 1527.15 201.101 1527.15 200.12C1527.15 199.117 1526.83 198.296 1526.19 197.656C1525.57 197.016 1524.77 196.696 1523.79 196.696C1522.8 196.696 1521.99 197.016 1521.35 197.656C1520.73 198.296 1520.43 199.117 1520.43 200.12C1520.43 201.101 1520.73 201.912 1521.35 202.552C1521.99 203.171 1522.8 203.48 1523.79 203.48Z" fill="white"/>
<path d="M1518.97 253.667C1518.97 252.838 1518.29 252.167 1517.47 252.167C1516.64 252.167 1515.97 252.838 1515.97 253.667H1517.47H1518.97ZM1556.61 285.739C1555.82 285.992 1555.57 287.136 1556.19 287.694L1566.04 296.655C1566.65 297.212 1567.77 296.855 1567.95 296.046L1570.78 283.03C1570.96 282.22 1570.09 281.432 1569.3 281.684L1556.61 285.739ZM1539.63 275.833V277.333H1545.36V275.833V274.333H1539.63V275.833ZM1545.36 275.833V277.333C1552.3 277.333 1558.44 280.755 1562.19 286.011L1563.41 285.14L1564.63 284.268C1560.34 278.257 1553.31 274.333 1545.36 274.333V275.833ZM1517.47 253.667H1515.97C1515.97 266.737 1526.56 277.333 1539.63 277.333V275.833V274.333C1528.22 274.333 1518.97 265.081 1518.97 253.667H1517.47Z" fill="url(#paint7_linear_6_257)"/>
<path d="M1358.72 253.667C1358.72 252.838 1358.04 252.167 1357.22 252.167C1356.39 252.167 1355.72 252.838 1355.72 253.667H1357.22H1358.72ZM1405.05 285.739C1404.26 285.992 1404.01 287.136 1404.63 287.694L1414.48 296.655C1415.1 297.212 1416.21 296.855 1416.39 296.046L1419.22 283.03C1419.4 282.22 1418.53 281.432 1417.74 281.684L1405.05 285.739ZM1379.38 275.833V277.333H1393.8V275.833V274.333H1379.38V275.833ZM1393.8 275.833V277.333C1400.74 277.333 1406.88 280.755 1410.63 286.011L1411.85 285.14L1413.07 284.268C1408.78 278.257 1401.75 274.333 1393.8 274.333V275.833ZM1357.22 253.667H1355.72C1355.72 266.737 1366.31 277.333 1379.38 277.333V275.833V274.333C1367.97 274.333 1358.72 265.081 1358.72 253.667H1357.22Z" fill="url(#paint8_linear_6_257)"/>
<path d="M1199.86 253.667C1199.86 252.838 1199.19 252.167 1198.36 252.167C1197.53 252.167 1196.86 252.838 1196.86 253.667H1198.36H1199.86ZM1245.5 285.739C1244.71 285.992 1244.46 287.136 1245.07 287.694L1254.93 296.655C1255.54 297.212 1256.66 296.855 1256.83 296.046L1259.67 283.03C1259.84 282.22 1258.98 281.432 1258.19 281.684L1245.5 285.739ZM1220.52 275.833V277.333H1234.24V275.833V274.333H1220.52V275.833ZM1234.24 275.833V277.333C1241.18 277.333 1247.33 280.755 1251.08 286.011L1252.3 285.14L1253.52 284.268C1249.23 278.257 1242.19 274.333 1234.24 274.333V275.833ZM1198.36 253.667H1196.86C1196.86 266.737 1207.45 277.333 1220.52 277.333V275.833V274.333C1209.11 274.333 1199.86 265.081 1199.86 253.667H1198.36Z" fill="url(#paint9_linear_6_257)"/>
<path d="M1040.65 253.667C1040.65 252.838 1039.98 252.167 1039.15 252.167C1038.32 252.167 1037.65 252.838 1037.65 253.667H1039.15H1040.65ZM1086.34 286.251C1085.55 286.5 1085.3 287.644 1085.91 288.204L1095.73 297.204C1096.34 297.764 1097.46 297.412 1097.63 296.603L1100.52 283.599C1100.7 282.79 1099.84 281.998 1099.04 282.247L1086.34 286.251ZM1061.59 276.111V277.611H1074.76V276.111V274.611H1061.59V276.111ZM1074.76 276.111V277.611C1081.85 277.611 1088.12 281.138 1091.92 286.541L1093.14 285.68L1094.37 284.818C1090.04 278.649 1082.87 274.611 1074.76 274.611V276.111ZM1039.15 253.667H1037.65C1037.65 266.891 1048.37 277.611 1061.59 277.611V276.111V274.611C1050.03 274.611 1040.65 265.234 1040.65 253.667H1039.15Z" fill="url(#paint10_linear_6_257)"/>
<path d="M880.575 253.667C880.575 252.838 879.904 252.167 879.075 252.167C878.247 252.167 877.575 252.838 877.575 253.667H879.075H880.575ZM926.439 286.251C925.649 286.5 925.395 287.644 926.006 288.204L935.825 297.204C936.436 297.764 937.554 297.412 937.733 296.603L940.617 283.599C940.797 282.79 939.933 281.998 939.143 282.247L926.439 286.251ZM901.52 276.111V277.611H914.855V276.111V274.611H901.52V276.111ZM914.855 276.111V277.611C921.951 277.611 928.223 281.138 932.014 286.541L933.242 285.68L934.47 284.818C930.141 278.649 922.97 274.611 914.855 274.611V276.111ZM879.075 253.667H877.575C877.575 266.891 888.296 277.611 901.52 277.611V276.111V274.611C889.953 274.611 880.575 265.234 880.575 253.667H879.075Z" fill="url(#paint11_linear_6_257)"/>
<path d="M720.199 253.667C720.199 252.838 719.528 252.167 718.699 252.167C717.871 252.167 717.199 252.838 717.199 253.667H718.699H720.199ZM764.063 286.251C763.273 286.5 763.02 287.644 763.63 288.204L773.45 297.204C774.061 297.764 775.178 297.412 775.358 296.603L778.242 283.599C778.422 282.79 777.558 281.998 776.768 282.247L764.063 286.251ZM741.144 276.111V277.611H752.48V276.111V274.611H741.144V276.111ZM752.48 276.111V277.611C759.576 277.611 765.848 281.138 769.639 286.541L770.866 285.68L772.094 284.818C767.766 278.649 760.595 274.611 752.48 274.611V276.111ZM718.699 253.667H717.199C717.199 266.891 727.919 277.611 741.144 277.611V276.111V274.611C729.576 274.611 720.199 265.234 720.199 253.667H718.699Z" fill="url(#paint12_linear_6_257)"/>
<path d="M0 184C0 161.909 17.9086 144 40 144H189.556C192.869 144 195.556 146.686 195.556 150V244.667C195.556 247.98 192.869 250.667 189.556 250.667H5.99999C2.68629 250.667 0 247.98 0 244.667V184Z" fill="#00D15F"/>
<path d="M49.0832 192.352C47.2272 192.352 45.6698 191.979 44.4112 191.232C43.1525 190.464 42.2245 189.525 41.6272 188.416C41.0298 187.285 40.7098 186.165 40.6672 185.056H45.2752C45.3818 186.016 45.7658 186.816 46.4272 187.456C47.0885 188.075 47.9738 188.384 49.0832 188.384C49.9152 188.384 50.6405 188.16 51.2592 187.712C51.8778 187.264 52.1872 186.709 52.1872 186.048C52.1872 185.472 51.9952 185.003 51.6112 184.64C51.2485 184.256 50.7898 183.957 50.2352 183.744C49.6805 183.509 48.8912 183.232 47.8672 182.912C46.4165 182.464 45.2432 182.037 44.3472 181.632C43.4512 181.205 42.6725 180.555 42.0112 179.68C41.3712 178.805 41.0512 177.653 41.0512 176.224C41.0512 175.051 41.3498 173.984 41.9472 173.024C42.5658 172.043 43.4405 171.264 44.5712 170.688C45.7018 170.112 47.0245 169.824 48.5392 169.824C50.1818 169.824 51.5792 170.155 52.7312 170.816C53.8832 171.477 54.7472 172.341 55.3232 173.408C55.9205 174.453 56.2405 175.541 56.2832 176.672H51.6752C51.6325 175.883 51.3338 175.211 50.7792 174.656C50.2245 174.08 49.4778 173.792 48.5392 173.792C47.6218 173.792 46.8858 174.027 46.3312 174.496C45.7765 174.944 45.4992 175.52 45.4992 176.224C45.4992 176.736 45.6698 177.163 46.0112 177.504C46.3738 177.845 46.8218 178.123 47.3552 178.336C47.8885 178.549 48.6352 178.795 49.5952 179.072C51.0672 179.499 52.2618 179.936 53.1792 180.384C54.1178 180.811 54.9285 181.483 55.6112 182.4C56.2938 183.317 56.6352 184.533 56.6352 186.048C56.6352 187.264 56.2725 188.352 55.5472 189.312C54.8218 190.272 53.8725 191.019 52.6992 191.552C51.5472 192.085 50.3418 192.352 49.0832 192.352ZM65.7087 192.352C63.4473 192.352 61.6767 191.712 60.3967 190.432C59.138 189.152 58.5087 187.467 58.5087 185.376V176.96H62.9247V185.056C62.9247 186.144 63.1593 186.997 63.6287 187.616C64.1193 188.213 64.8127 188.512 65.7087 188.512C67.522 188.512 68.4287 187.371 68.4287 185.088V176.96H72.8447V185.408C72.8447 186.688 72.5353 187.861 71.9167 188.928C71.3193 189.973 70.4767 190.805 69.3887 191.424C68.3007 192.043 67.074 192.352 65.7087 192.352ZM83.5889 176.608C85.1036 176.608 86.4582 176.949 87.6529 177.632C88.8689 178.315 89.8076 179.264 90.4689 180.48C91.1516 181.675 91.4929 183.008 91.4929 184.48C91.4929 186.037 91.1729 187.413 90.5329 188.608C89.9142 189.803 89.0609 190.731 87.9729 191.392C86.8849 192.032 85.6796 192.352 84.3569 192.352C82.5222 192.352 81.0609 191.787 79.9729 190.656V198.784H75.5569V184.832C75.5569 183.232 75.8982 181.813 76.5809 180.576C77.2849 179.317 78.2449 178.347 79.4609 177.664C80.6982 176.96 82.0742 176.608 83.5889 176.608ZM83.5889 180.416C82.5222 180.416 81.6369 180.8 80.9329 181.568C80.2502 182.315 79.9089 183.285 79.9089 184.48C79.9089 185.803 80.2716 186.816 80.9969 187.52C81.7436 188.203 82.6076 188.544 83.5889 188.544C84.6129 188.544 85.4556 188.171 86.1169 187.424C86.7996 186.656 87.1409 185.675 87.1409 184.48C87.1409 183.285 86.7996 182.315 86.1169 181.568C85.4556 180.8 84.6129 180.416 83.5889 180.416ZM101.418 176.608C102.933 176.608 104.288 176.949 105.482 177.632C106.698 178.315 107.637 179.264 108.298 180.48C108.981 181.675 109.322 183.008 109.322 184.48C109.322 186.037 109.002 187.413 108.362 188.608C107.744 189.803 106.89 190.731 105.802 191.392C104.714 192.032 103.509 192.352 102.186 192.352C100.352 192.352 98.8904 191.787 97.8024 190.656V198.784H93.3864V184.832C93.3864 183.232 93.7277 181.813 94.4104 180.576C95.1144 179.317 96.0744 178.347 97.2904 177.664C98.5277 176.96 99.9037 176.608 101.418 176.608ZM101.418 180.416C100.352 180.416 99.4664 180.8 98.7624 181.568C98.0797 182.315 97.7384 183.285 97.7384 184.48C97.7384 185.803 98.1011 186.816 98.8264 187.52C99.5731 188.203 100.437 188.544 101.418 188.544C102.442 188.544 103.285 188.171 103.946 187.424C104.629 186.656 104.97 185.675 104.97 184.48C104.97 183.285 104.629 182.315 103.946 181.568C103.285 180.8 102.442 180.416 101.418 180.416ZM118.512 192.352C116.955 192.352 115.557 192.011 114.32 191.328C113.083 190.645 112.112 189.707 111.408 188.512C110.725 187.296 110.384 185.952 110.384 184.48C110.384 183.008 110.725 181.675 111.408 180.48C112.112 179.264 113.083 178.315 114.32 177.632C115.557 176.949 116.955 176.608 118.512 176.608C120.069 176.608 121.467 176.949 122.704 177.632C123.941 178.315 124.901 179.264 125.584 180.48C126.288 181.675 126.64 183.008 126.64 184.48C126.64 185.952 126.288 187.296 125.584 188.512C124.901 189.707 123.941 190.645 122.704 191.328C121.467 192.011 120.069 192.352 118.512 192.352ZM118.512 188.544C119.621 188.544 120.528 188.171 121.232 187.424C121.936 186.656 122.288 185.675 122.288 184.48C122.288 183.285 121.936 182.315 121.232 181.568C120.528 180.8 119.621 180.416 118.512 180.416C117.403 180.416 116.496 180.8 115.792 181.568C115.088 182.315 114.736 183.285 114.736 184.48C114.736 185.675 115.088 186.656 115.792 187.424C116.496 188.171 117.403 188.544 118.512 188.544ZM128.514 183.36C128.514 181.419 129.069 179.808 130.178 178.528C131.309 177.248 132.951 176.608 135.106 176.608C135.874 176.608 136.589 176.693 137.25 176.864V180.832L136.162 180.8C135.031 180.8 134.21 181.045 133.698 181.536C133.186 182.027 132.93 182.752 132.93 183.712V192H128.514V183.36ZM145.91 192.256C143.841 192.256 142.188 191.669 140.95 190.496C139.734 189.323 139.126 187.552 139.126 185.184V172.192H143.542V176.96H148.118V180.544H143.542V184.736C143.542 185.632 143.638 186.336 143.83 186.848C144.044 187.36 144.417 187.744 144.95 188C145.484 188.256 146.241 188.384 147.222 188.384C147.585 188.363 147.948 188.352 148.31 188.352V192C147.521 192.171 146.721 192.256 145.91 192.256ZM69.7558 224.256C67.6864 224.256 66.0331 223.669 64.7958 222.496C63.5798 221.323 62.9718 219.552 62.9718 217.184V204.192H67.3878V208.96H71.9638V212.544H67.3878V216.736C67.3878 217.632 67.4838 218.336 67.6758 218.848C67.8891 219.36 68.2624 219.744 68.7958 220C69.3291 220.256 70.0864 220.384 71.0678 220.384C71.4304 220.363 71.7931 220.352 72.1558 220.352V224C71.3664 224.171 70.5664 224.256 69.7558 224.256ZM74.0498 215.36C74.0498 213.419 74.6044 211.808 75.7138 210.528C76.8444 209.248 78.4871 208.608 80.6418 208.608C81.4098 208.608 82.1244 208.693 82.7858 208.864V212.832L81.6978 212.8C80.5671 212.8 79.7458 213.045 79.2338 213.536C78.7218 214.027 78.4658 214.752 78.4658 215.712V224H74.0498V215.36ZM90.966 224.352C89.6647 224.352 88.4594 224.032 87.35 223.392C86.262 222.731 85.3874 221.803 84.726 220.608C84.086 219.413 83.766 218.037 83.766 216.48C83.766 215.008 84.1074 213.675 84.79 212.48C85.494 211.264 86.4647 210.315 87.702 209.632C88.9394 208.949 90.326 208.608 91.862 208.608C93.4407 208.608 94.838 208.939 96.054 209.6C97.2914 210.24 98.2514 211.157 98.934 212.352C99.6167 213.547 99.958 214.933 99.958 216.512V224H96.054L95.798 221.76C95.3287 222.571 94.6887 223.211 93.878 223.68C93.0674 224.128 92.0967 224.352 90.966 224.352ZM91.862 220.544C92.886 220.544 93.7607 220.203 94.486 219.52C95.2327 218.816 95.606 217.803 95.606 216.48C95.606 215.285 95.254 214.315 94.55 213.568C93.846 212.8 92.95 212.416 91.862 212.416C90.774 212.416 89.878 212.8 89.174 213.568C88.47 214.315 88.118 215.285 88.118 216.48C88.118 217.675 88.47 218.656 89.174 219.424C89.878 220.171 90.774 220.544 91.862 220.544ZM109.565 224.352C108.029 224.352 106.653 224.011 105.437 223.328C104.221 222.645 103.261 221.707 102.557 220.512C101.874 219.296 101.533 217.952 101.533 216.48C101.533 215.008 101.874 213.675 102.557 212.48C103.261 211.264 104.221 210.315 105.437 209.632C106.653 208.949 108.029 208.608 109.565 208.608C111.549 208.608 113.213 209.152 114.557 210.24C115.922 211.307 116.754 212.736 117.053 214.528H112.797C112.242 213.141 111.197 212.448 109.661 212.448C108.552 212.448 107.645 212.832 106.941 213.6C106.237 214.347 105.885 215.307 105.885 216.48C105.885 217.653 106.237 218.624 106.941 219.392C107.645 220.139 108.552 220.512 109.661 220.512C111.197 220.512 112.242 219.819 112.797 218.432H117.053C116.754 220.224 115.922 221.664 114.557 222.752C113.213 223.819 111.549 224.352 109.565 224.352ZM123.873 215.744V224H119.457V202.176H123.873V214.752L128.673 208.96H133.793L128.385 215.168L134.113 224H128.993L123.873 215.744Z" fill="white"/>
<rect y="302" width="106.667" height="106.667" rx="6" fill="#00D15F"/>
<path d="M48.2053 366.352C46.3493 366.352 44.792 365.979 43.5333 365.232C42.2747 364.464 41.3467 363.525 40.7493 362.416C40.152 361.285 39.832 360.165 39.7893 359.056H44.3973C44.504 360.016 44.888 360.816 45.5493 361.456C46.2107 362.075 47.096 362.384 48.2053 362.384C49.0373 362.384 49.7627 362.16 50.3813 361.712C51 361.264 51.3093 360.709 51.3093 360.048C51.3093 359.472 51.1173 359.003 50.7333 358.64C50.3707 358.256 49.912 357.957 49.3573 357.744C48.8027 357.509 48.0133 357.232 46.9893 356.912C45.5387 356.464 44.3653 356.037 43.4693 355.632C42.5733 355.205 41.7947 354.555 41.1333 353.68C40.4933 352.805 40.1733 351.653 40.1733 350.224C40.1733 349.051 40.472 347.984 41.0693 347.024C41.688 346.043 42.5627 345.264 43.6933 344.688C44.824 344.112 46.1467 343.824 47.6613 343.824C49.304 343.824 50.7013 344.155 51.8533 344.816C53.0053 345.477 53.8693 346.341 54.4453 347.408C55.0427 348.453 55.3627 349.541 55.4053 350.672H50.7973C50.7547 349.883 50.456 349.211 49.9013 348.656C49.3467 348.08 48.6 347.792 47.6613 347.792C46.744 347.792 46.008 348.027 45.4533 348.496C44.8987 348.944 44.6213 349.52 44.6213 350.224C44.6213 350.736 44.792 351.163 45.1333 351.504C45.496 351.845 45.944 352.123 46.4773 352.336C47.0107 352.549 47.7573 352.795 48.7173 353.072C50.1893 353.499 51.384 353.936 52.3013 354.384C53.24 354.811 54.0507 355.483 54.7333 356.4C55.416 357.317 55.7573 358.533 55.7573 360.048C55.7573 361.264 55.3947 362.352 54.6693 363.312C53.944 364.272 52.9947 365.019 51.8213 365.552C50.6693 366.085 49.464 366.352 48.2053 366.352ZM61.2148 349.264L56.9268 352.176V347.76L62.2068 344.176H65.6628V366H61.2148V349.264Z" fill="white"/>
<path d="M0 470C0 466.686 2.68629 464 6 464H100.667C103.98 464 106.667 466.686 106.667 470V564.667C106.667 567.98 103.98 570.667 100.667 570.667H40C17.9086 570.667 0 552.758 0 530.667V470Z" fill="#00D15F"/>
<path d="M45.2053 528.352C43.3493 528.352 41.792 527.979 40.5333 527.232C39.2747 526.464 38.3467 525.525 37.7493 524.416C37.152 523.285 36.832 522.165 36.7893 521.056H41.3973C41.504 522.016 41.888 522.816 42.5493 523.456C43.2107 524.075 44.096 524.384 45.2053 524.384C46.0373 524.384 46.7627 524.16 47.3813 523.712C48 523.264 48.3093 522.709 48.3093 522.048C48.3093 521.472 48.1173 521.003 47.7333 520.64C47.3707 520.256 46.912 519.957 46.3573 519.744C45.8027 519.509 45.0133 519.232 43.9893 518.912C42.5387 518.464 41.3653 518.037 40.4693 517.632C39.5733 517.205 38.7947 516.555 38.1333 515.68C37.4933 514.805 37.1733 513.653 37.1733 512.224C37.1733 511.051 37.472 509.984 38.0693 509.024C38.688 508.043 39.5627 507.264 40.6933 506.688C41.824 506.112 43.1467 505.824 44.6613 505.824C46.304 505.824 47.7013 506.155 48.8533 506.816C50.0053 507.477 50.8693 508.341 51.4453 509.408C52.0427 510.453 52.3627 511.541 52.4053 512.672H47.7973C47.7547 511.883 47.456 511.211 46.9013 510.656C46.3467 510.08 45.6 509.792 44.6613 509.792C43.744 509.792 43.008 510.027 42.4533 510.496C41.8987 510.944 41.6213 511.52 41.6213 512.224C41.6213 512.736 41.792 513.163 42.1333 513.504C42.496 513.845 42.944 514.123 43.4773 514.336C44.0107 514.549 44.7573 514.795 45.7173 515.072C47.1893 515.499 48.384 515.936 49.3013 516.384C50.24 516.811 51.0507 517.483 51.7333 518.4C52.416 519.317 52.7573 520.533 52.7573 522.048C52.7573 523.264 52.3947 524.352 51.6693 525.312C50.944 526.272 49.9947 527.019 48.8213 527.552C47.6693 528.085 46.464 528.352 45.2053 528.352ZM54.1188 524.288L58.0868 521.408C60.0495 519.979 61.5002 518.869 62.4388 518.08C63.3988 517.269 64.1028 516.501 64.5508 515.776C65.0202 515.051 65.2548 514.261 65.2548 513.408C65.2548 512.32 64.9348 511.445 64.2948 510.784C63.6762 510.123 62.8442 509.792 61.7988 509.792C60.5615 509.792 59.6228 510.197 58.9828 511.008C58.3428 511.819 58.0015 512.843 57.9588 514.08H53.4788C53.5002 512.608 53.8308 511.243 54.4708 509.984C55.1108 508.725 56.0495 507.723 57.2868 506.976C58.5455 506.208 60.0495 505.824 61.7988 505.824C64.0815 505.824 65.9695 506.453 67.4628 507.712C68.9775 508.949 69.7348 510.848 69.7348 513.408C69.7348 514.923 69.1375 516.437 67.9428 517.952C66.7482 519.445 65.1908 520.875 63.2708 522.24L61.0628 523.808V523.84H69.5748V528H54.1188V524.288Z" fill="white"/>
<rect x="169" y="464" width="106.667" height="106.667" rx="6" fill="#00D15F"/>
<path d="M213.893 528.352C212.037 528.352 210.479 527.979 209.221 527.232C207.962 526.464 207.034 525.525 206.437 524.416C205.839 523.285 205.519 522.165 205.477 521.056H210.085C210.191 522.016 210.575 522.816 211.237 523.456C211.898 524.075 212.784 524.384 213.893 524.384C214.725 524.384 215.45 524.16 216.069 523.712C216.688 523.264 216.997 522.709 216.997 522.048C216.997 521.472 216.805 521.003 216.421 520.64C216.058 520.256 215.6 519.957 215.045 519.744C214.49 519.509 213.701 519.232 212.677 518.912C211.226 518.464 210.053 518.037 209.157 517.632C208.261 517.205 207.482 516.555 206.821 515.68C206.181 514.805 205.861 513.653 205.861 512.224C205.861 511.051 206.159 509.984 206.757 509.024C207.375 508.043 208.25 507.264 209.381 506.688C210.511 506.112 211.834 505.824 213.349 505.824C214.992 505.824 216.389 506.155 217.541 506.816C218.693 507.477 219.557 508.341 220.133 509.408C220.73 510.453 221.05 511.541 221.093 512.672H216.485C216.442 511.883 216.144 511.211 215.589 510.656C215.034 510.08 214.287 509.792 213.349 509.792C212.431 509.792 211.695 510.027 211.141 510.496C210.586 510.944 210.309 511.52 210.309 512.224C210.309 512.736 210.479 513.163 210.821 513.504C211.183 513.845 211.631 514.123 212.165 514.336C212.698 514.549 213.445 514.795 214.405 515.072C215.877 515.499 217.071 515.936 217.989 516.384C218.928 516.811 219.738 517.483 220.421 518.4C221.104 519.317 221.445 520.533 221.445 522.048C221.445 523.264 221.082 524.352 220.357 525.312C219.632 526.272 218.682 527.019 217.509 527.552C216.357 528.085 215.152 528.352 213.893 528.352ZM231.19 528.352C229.633 528.352 228.236 528.075 226.998 527.52C225.761 526.965 224.769 526.187 224.022 525.184C223.276 524.16 222.849 522.987 222.742 521.664H227.478C227.67 522.453 228.086 523.115 228.726 523.648C229.366 524.181 230.188 524.448 231.19 524.448C232.257 524.448 233.11 524.181 233.75 523.648C234.412 523.115 234.742 522.411 234.742 521.536C234.742 520.683 234.369 520.021 233.622 519.552C232.876 519.083 231.788 518.848 230.358 518.848H228.47V514.944H230.102C231.446 514.944 232.438 514.72 233.078 514.272C233.74 513.803 234.07 513.163 234.07 512.352C234.07 511.563 233.793 510.933 233.238 510.464C232.684 509.973 231.969 509.728 231.094 509.728C230.198 509.728 229.473 509.984 228.918 510.496C228.364 511.008 228.044 511.659 227.958 512.448H223.414C223.478 511.445 223.788 510.432 224.342 509.408C224.897 508.384 225.74 507.531 226.87 506.848C228.022 506.165 229.43 505.824 231.094 505.824C232.524 505.824 233.782 506.08 234.87 506.592C235.98 507.083 236.844 507.787 237.462 508.704C238.081 509.6 238.39 510.613 238.39 511.744C238.39 513.067 238.006 514.165 237.238 515.04C236.492 515.893 235.67 516.459 234.774 516.736V516.8C235.884 517.013 236.876 517.579 237.75 518.496C238.625 519.392 239.062 520.597 239.062 522.112C239.062 523.328 238.71 524.416 238.006 525.376C237.324 526.315 236.385 527.051 235.19 527.584C233.996 528.096 232.662 528.352 231.19 528.352Z" fill="white"/>
<rect x="329" y="464" width="106.667" height="106.667" rx="6" fill="#00D15F"/>
<path d="M373.268 528.352C371.412 528.352 369.854 527.979 368.596 527.232C367.337 526.464 366.409 525.525 365.812 524.416C365.214 523.285 364.894 522.165 364.852 521.056H369.46C369.566 522.016 369.95 522.816 370.612 523.456C371.273 524.075 372.159 524.384 373.268 524.384C374.1 524.384 374.825 524.16 375.444 523.712C376.063 523.264 376.372 522.709 376.372 522.048C376.372 521.472 376.18 521.003 375.796 520.64C375.433 520.256 374.975 519.957 374.42 519.744C373.865 519.509 373.076 519.232 372.052 518.912C370.601 518.464 369.428 518.037 368.532 517.632C367.636 517.205 366.857 516.555 366.196 515.68C365.556 514.805 365.236 513.653 365.236 512.224C365.236 511.051 365.534 509.984 366.132 509.024C366.75 508.043 367.625 507.264 368.756 506.688C369.886 506.112 371.209 505.824 372.724 505.824C374.367 505.824 375.764 506.155 376.916 506.816C378.068 507.477 378.932 508.341 379.508 509.408C380.105 510.453 380.425 511.541 380.468 512.672H375.86C375.817 511.883 375.519 511.211 374.964 510.656C374.409 510.08 373.662 509.792 372.724 509.792C371.806 509.792 371.07 510.027 370.516 510.496C369.961 510.944 369.684 511.52 369.684 512.224C369.684 512.736 369.854 513.163 370.196 513.504C370.558 513.845 371.006 514.123 371.54 514.336C372.073 514.549 372.82 514.795 373.78 515.072C375.252 515.499 376.446 515.936 377.364 516.384C378.303 516.811 379.113 517.483 379.796 518.4C380.479 519.317 380.82 520.533 380.82 522.048C380.82 523.264 380.457 524.352 379.732 525.312C379.007 526.272 378.057 527.019 376.884 527.552C375.732 528.085 374.527 528.352 373.268 528.352ZM392.325 524.064H381.605V520.64L391.365 506.176H396.773V520.128H400.069V524.064H396.773V528H392.325V524.064ZM392.325 520.128V511.04H392.261C392.155 511.317 391.995 511.605 391.781 511.904L387.301 518.56C386.811 519.285 386.416 519.797 386.117 520.096V520.128H392.325Z" fill="white"/>
<path d="M489 470C489 466.686 491.686 464 495 464H589.667C592.98 464 595.667 466.686 595.667 470V530.667C595.667 552.758 577.758 570.667 555.667 570.667H495C491.686 570.667 489 567.98 489 564.667V470Z" fill="#00D15F"/>
<path d="M533.815 528.352C531.959 528.352 530.401 527.979 529.143 527.232C527.884 526.464 526.956 525.525 526.359 524.416C525.761 523.285 525.441 522.165 525.399 521.056H530.007C530.113 522.016 530.497 522.816 531.159 523.456C531.82 524.075 532.705 524.384 533.815 524.384C534.647 524.384 535.372 524.16 535.991 523.712C536.609 523.264 536.919 522.709 536.919 522.048C536.919 521.472 536.727 521.003 536.343 520.64C535.98 520.256 535.521 519.957 534.967 519.744C534.412 519.509 533.623 519.232 532.599 518.912C531.148 518.464 529.975 518.037 529.079 517.632C528.183 517.205 527.404 516.555 526.743 515.68C526.103 514.805 525.783 513.653 525.783 512.224C525.783 511.051 526.081 509.984 526.679 509.024C527.297 508.043 528.172 507.264 529.303 506.688C530.433 506.112 531.756 505.824 533.271 505.824C534.913 505.824 536.311 506.155 537.463 506.816C538.615 507.477 539.479 508.341 540.055 509.408C540.652 510.453 540.972 511.541 541.015 512.672H536.407C536.364 511.883 536.065 511.211 535.511 510.656C534.956 510.08 534.209 509.792 533.271 509.792C532.353 509.792 531.617 510.027 531.063 510.496C530.508 510.944 530.231 511.52 530.231 512.224C530.231 512.736 530.401 513.163 530.743 513.504C531.105 513.845 531.553 514.123 532.087 514.336C532.62 514.549 533.367 514.795 534.327 515.072C535.799 515.499 536.993 515.936 537.911 516.384C538.849 516.811 539.66 517.483 540.343 518.4C541.025 519.317 541.367 520.533 541.367 522.048C541.367 523.264 541.004 524.352 540.279 525.312C539.553 526.272 538.604 527.019 537.431 527.552C536.279 528.085 535.073 528.352 533.815 528.352ZM551.464 528.352C549.118 528.352 547.208 527.797 545.736 526.688C544.286 525.579 543.411 523.979 543.112 521.888H547.816C547.987 522.613 548.392 523.232 549.032 523.744C549.672 524.256 550.472 524.512 551.432 524.512C552.478 524.512 553.352 524.171 554.056 523.488C554.76 522.805 555.112 521.899 555.112 520.768C555.112 519.616 554.782 518.731 554.12 518.112C553.459 517.472 552.648 517.152 551.688 517.152C551.027 517.152 550.451 517.28 549.96 517.536C549.47 517.792 549.011 518.155 548.584 518.624H543.688L545.768 506.176H558.376V510.272H549.224L548.488 514.656H548.552C549.043 514.315 549.619 514.037 550.28 513.824C550.963 513.589 551.88 513.472 553.032 513.472C554.099 513.472 555.134 513.739 556.136 514.272C557.139 514.805 557.95 515.605 558.568 516.672C559.208 517.717 559.528 518.965 559.528 520.416C559.528 522.187 559.144 523.669 558.376 524.864C557.63 526.059 556.638 526.944 555.4 527.52C554.184 528.075 552.872 528.352 551.464 528.352Z" fill="white"/>
<path d="M540.833 460C540.833 460.829 541.505 461.5 542.333 461.5C543.162 461.5 543.833 460.829 543.833 460H542.333H540.833ZM468.994 428.222C469.822 428.222 470.408 427.208 469.994 426.49L463.333 414.954C462.919 414.237 461.748 414.237 461.333 414.954L454.673 426.49C454.259 427.208 454.845 428.222 455.673 428.222H468.994ZM522.333 440V438.5H486.333V440V441.5H522.333V440ZM486.333 440V438.5C473.907 438.5 463.833 428.426 463.833 416H462.333H460.833C460.833 430.083 472.25 441.5 486.333 441.5V440ZM542.333 460H543.833C543.833 448.126 534.207 438.5 522.333 438.5V440V441.5C532.551 441.5 540.833 449.783 540.833 460H542.333Z" fill="url(#paint13_linear_6_257)"/>
<path d="M380.833 460C380.833 460.828 381.505 461.5 382.333 461.5C383.162 461.5 383.833 460.828 383.833 460H382.333H380.833ZM468.994 428.222C469.822 428.222 470.408 427.208 469.994 426.49L463.333 414.954C462.919 414.237 461.748 414.237 461.333 414.954L454.673 426.49C454.259 427.208 454.845 428.222 455.673 428.222H468.994ZM402.333 440V441.5H438.333V440V438.5H402.333V440ZM438.333 440V441.5C452.417 441.5 463.833 430.083 463.833 416H462.333H460.833C460.833 428.426 450.76 438.5 438.333 438.5V440ZM382.333 460H383.833C383.833 449.783 392.116 441.5 402.333 441.5V440V438.5C390.459 438.5 380.833 448.126 380.833 460H382.333Z" fill="url(#paint14_linear_6_257)"/>
<path d="M540.833 460C540.833 460.828 541.505 461.5 542.333 461.5C543.162 461.5 543.833 460.828 543.833 460H542.333H540.833ZM624.384 429.506C625.178 429.745 626.031 428.942 625.841 428.136L622.791 415.169C622.602 414.363 621.48 414.025 620.876 414.592L611.172 423.717C610.568 424.285 610.837 425.425 611.63 425.664L624.384 429.506ZM565.722 436.611V438.111H598.944V436.611V435.111H565.722V436.611ZM598.944 436.611V438.111C607.606 438.111 615.233 433.685 619.689 426.979L618.44 426.149L617.19 425.318C613.267 431.224 606.559 435.111 598.944 435.111V436.611ZM542.333 460H543.833C543.833 447.911 553.633 438.111 565.722 438.111V436.611V435.111C551.977 435.111 540.833 446.254 540.833 460H542.333Z" fill="url(#paint15_linear_6_257)"/>
<defs>
<linearGradient id="paint0_linear_6_257" x1="1596.17" y1="39.4433" x2="1596.17" y2="276.845" gradientUnits="userSpaceOnUse">
<stop stop-color="#FD8A26"/>
<stop offset="1" stop-color="#FD8A26" stop-opacity="0"/>
</linearGradient>
<linearGradient id="paint1_linear_6_257" x1="1466.54" y1="249.716" x2="1466.54" y2="294.049" gradientUnits="userSpaceOnUse">
<stop stop-color="#FD8A26"/>
<stop offset="1" stop-color="#FD8A26" stop-opacity="0"/>
</linearGradient>
<linearGradient id="paint2_linear_6_257" x1="1306.72" y1="249.716" x2="1306.72" y2="294.049" gradientUnits="userSpaceOnUse">
<stop stop-color="#FD8A26"/>
<stop offset="1" stop-color="#FD8A26" stop-opacity="0"/>
</linearGradient>
<linearGradient id="paint3_linear_6_257" x1="1148.13" y1="249.667" x2="1148.13" y2="294.556" gradientUnits="userSpaceOnUse">
<stop stop-color="#FD8A26"/>
<stop offset="1" stop-color="#FD8A26" stop-opacity="0"/>
</linearGradient>
<linearGradient id="paint4_linear_6_257" x1="988.051" y1="249.667" x2="988.051" y2="294.556" gradientUnits="userSpaceOnUse">
<stop stop-color="#FD8A26"/>
<stop offset="1" stop-color="#FD8A26" stop-opacity="0"/>
</linearGradient>
<linearGradient id="paint5_linear_6_257" x1="827.144" y1="249.667" x2="827.144" y2="294.556" gradientUnits="userSpaceOnUse">
<stop stop-color="#FD8A26"/>
<stop offset="1" stop-color="#FD8A26" stop-opacity="0"/>
</linearGradient>
<linearGradient id="paint6_linear_6_257" x1="663.278" y1="249.667" x2="663.278" y2="294.555" gradientUnits="userSpaceOnUse">
<stop stop-color="#FD8A26"/>
<stop offset="1" stop-color="#FD8A26" stop-opacity="0"/>
</linearGradient>
<linearGradient id="paint7_linear_6_257" x1="1542.49" y1="253.667" x2="1542.49" y2="298" gradientUnits="userSpaceOnUse">
<stop stop-color="#8E71F4" stop-opacity="0"/>
<stop offset="1" stop-color="#8E71F4"/>
</linearGradient>
<linearGradient id="paint8_linear_6_257" x1="1386.59" y1="253.667" x2="1386.59" y2="298" gradientUnits="userSpaceOnUse">
<stop stop-color="#8E71F4" stop-opacity="0"/>
<stop offset="1" stop-color="#8E71F4"/>
</linearGradient>
<linearGradient id="paint9_linear_6_257" x1="1227.38" y1="253.667" x2="1227.38" y2="298" gradientUnits="userSpaceOnUse">
<stop stop-color="#8E71F4" stop-opacity="0"/>
<stop offset="1" stop-color="#8E71F4"/>
</linearGradient>
<linearGradient id="paint10_linear_6_257" x1="1068.18" y1="253.667" x2="1068.18" y2="298.556" gradientUnits="userSpaceOnUse">
<stop stop-color="#8E71F4" stop-opacity="0"/>
<stop offset="1" stop-color="#8E71F4"/>
</linearGradient>
<linearGradient id="paint11_linear_6_257" x1="908.188" y1="253.667" x2="908.188" y2="298.556" gradientUnits="userSpaceOnUse">
<stop stop-color="#8E71F4" stop-opacity="0"/>
<stop offset="1" stop-color="#8E71F4"/>
</linearGradient>
<linearGradient id="paint12_linear_6_257" x1="746.812" y1="253.667" x2="746.812" y2="298.556" gradientUnits="userSpaceOnUse">
<stop stop-color="#8E71F4" stop-opacity="0"/>
<stop offset="1" stop-color="#8E71F4"/>
</linearGradient>
<linearGradient id="paint13_linear_6_257" x1="502.333" y1="408.88" x2="502.333" y2="459.658" gradientUnits="userSpaceOnUse">
<stop stop-color="#00D15F"/>
<stop offset="1" stop-color="#00D15F" stop-opacity="0"/>
</linearGradient>
<linearGradient id="paint14_linear_6_257" x1="422.333" y1="408.88" x2="422.333" y2="459.658" gradientUnits="userSpaceOnUse">
<stop stop-color="#00D15F"/>
<stop offset="1" stop-color="#00D15F" stop-opacity="0"/>
</linearGradient>
<linearGradient id="paint15_linear_6_257" x1="582.333" y1="408.88" x2="582.333" y2="459.658" gradientUnits="userSpaceOnUse">
<stop stop-color="#00D15F"/>
<stop offset="1" stop-color="#00D15F" stop-opacity="0"/>
</linearGradient>
</defs>
</svg>
