<svg width="1907" height="571" viewBox="0 0 1907 571" fill="none" xmlns="http://www.w3.org/2000/svg">
<path d="M1395 40C1395 17.9086 1412.91 0 1435 0H1590.56V67.3333C1590.56 89.4247 1572.65 107.333 1550.56 107.333H1395V40Z" fill="#57E0FF"/>
<path d="M1425.02 27.176H1439.64V31.336H1429.37V35.944H1438.23V40.04H1429.37V44.84H1439.64V49H1425.02V27.176ZM1448.55 43.56L1445.96 49H1440.64L1445.44 41.16L1440.64 33.96H1445.96L1448.55 38.952L1451.14 33.96H1456.45L1451.65 41.16L1456.45 49H1451.14L1448.55 43.56ZM1464.11 49.352C1462.55 49.352 1461.18 49.0107 1459.98 48.328C1458.79 47.6453 1457.86 46.7067 1457.2 45.512C1456.56 44.3173 1456.24 42.9733 1456.24 41.48C1456.24 40.008 1456.57 38.6747 1457.23 37.48C1457.89 36.264 1458.81 35.3147 1459.98 34.632C1461.16 33.9493 1462.49 33.608 1463.98 33.608C1465.48 33.608 1466.8 33.9493 1467.95 34.632C1469.12 35.3147 1470.03 36.264 1470.67 37.48C1471.33 38.6747 1471.66 40.008 1471.66 41.48C1471.66 41.9493 1471.65 42.4293 1471.63 42.92H1460.34C1460.57 43.8587 1461.01 44.5733 1461.65 45.064C1462.29 45.5547 1463.08 45.8 1464.02 45.8C1464.85 45.8 1465.51 45.6933 1466 45.48C1466.51 45.2667 1466.92 44.9253 1467.22 44.456H1471.22C1470.77 46.0987 1469.88 47.3253 1468.56 48.136C1467.24 48.9467 1465.75 49.352 1464.11 49.352ZM1467.63 39.976C1467.48 39.1653 1467.07 38.504 1466.38 37.992C1465.7 37.4587 1464.9 37.192 1463.98 37.192C1463.04 37.192 1462.24 37.448 1461.58 37.96C1460.94 38.4507 1460.52 39.1227 1460.3 39.976H1467.63ZM1480.76 49.352C1479.22 49.352 1477.84 49.0107 1476.63 48.328C1475.41 47.6453 1474.45 46.7067 1473.75 45.512C1473.07 44.296 1472.72 42.952 1472.72 41.48C1472.72 40.008 1473.07 38.6747 1473.75 37.48C1474.45 36.264 1475.41 35.3147 1476.63 34.632C1477.84 33.9493 1479.22 33.608 1480.76 33.608C1482.74 33.608 1484.4 34.152 1485.75 35.24C1487.11 36.3067 1487.95 37.736 1488.24 39.528H1483.99C1483.43 38.1413 1482.39 37.448 1480.85 37.448C1479.74 37.448 1478.84 37.832 1478.13 38.6C1477.43 39.3467 1477.08 40.3067 1477.08 41.48C1477.08 42.6533 1477.43 43.624 1478.13 44.392C1478.84 45.1387 1479.74 45.512 1480.85 45.512C1482.39 45.512 1483.43 44.8187 1483.99 43.432H1488.24C1487.95 45.224 1487.11 46.664 1485.75 47.752C1484.4 48.8187 1482.74 49.352 1480.76 49.352ZM1497.34 49.352C1495.08 49.352 1493.3 48.712 1492.02 47.432C1490.77 46.152 1490.14 44.4667 1490.14 42.376V33.96H1494.55V42.056C1494.55 43.144 1494.79 43.9973 1495.26 44.616C1495.75 45.2133 1496.44 45.512 1497.34 45.512C1499.15 45.512 1500.06 44.3707 1500.06 42.088V33.96H1504.47V42.408C1504.47 43.688 1504.16 44.8613 1503.54 45.928C1502.95 46.9733 1502.1 47.8053 1501.02 48.424C1499.93 49.0427 1498.7 49.352 1497.34 49.352ZM1514.03 49.256C1511.96 49.256 1510.31 48.6693 1509.07 47.496C1507.86 46.3227 1507.25 44.552 1507.25 42.184V29.192H1511.66V33.96H1516.24V37.544H1511.66V41.736C1511.66 42.632 1511.76 43.336 1511.95 43.848C1512.17 44.36 1512.54 44.744 1513.07 45C1513.61 45.256 1514.36 45.384 1515.34 45.384C1515.71 45.3627 1516.07 45.352 1516.43 45.352V49C1515.64 49.1707 1514.84 49.256 1514.03 49.256ZM1518.29 33.96H1522.71V49H1518.29V33.96ZM1520.5 31.688C1519.76 31.688 1519.11 31.432 1518.55 30.92C1518.02 30.408 1517.75 29.7893 1517.75 29.064C1517.75 28.3173 1518.02 27.688 1518.55 27.176C1519.11 26.6427 1519.76 26.376 1520.5 26.376C1521.25 26.376 1521.89 26.6427 1522.42 27.176C1522.98 27.688 1523.25 28.3173 1523.25 29.064C1523.25 29.7893 1522.98 30.408 1522.42 30.92C1521.89 31.432 1521.25 31.688 1520.5 31.688ZM1523.87 33.96H1528.48L1530.85 41.064C1531.23 42.28 1531.49 43.1547 1531.61 43.688H1531.68C1531.81 43.1547 1532.06 42.28 1532.45 41.064L1534.81 33.96H1539.45L1533.76 49H1529.57L1523.87 33.96ZM1547.43 49.352C1545.87 49.352 1544.5 49.0107 1543.3 48.328C1542.11 47.6453 1541.18 46.7067 1540.52 45.512C1539.88 44.3173 1539.56 42.9733 1539.56 41.48C1539.56 40.008 1539.89 38.6747 1540.55 37.48C1541.21 36.264 1542.13 35.3147 1543.3 34.632C1544.48 33.9493 1545.81 33.608 1547.3 33.608C1548.8 33.608 1550.12 33.9493 1551.27 34.632C1552.45 35.3147 1553.35 36.264 1553.99 37.48C1554.65 38.6747 1554.98 40.008 1554.98 41.48C1554.98 41.9493 1554.97 42.4293 1554.95 42.92H1543.66C1543.89 43.8587 1544.33 44.5733 1544.97 45.064C1545.61 45.5547 1546.4 45.8 1547.34 45.8C1548.17 45.8 1548.83 45.6933 1549.32 45.48C1549.83 45.2667 1550.24 44.9253 1550.54 44.456H1554.54C1554.09 46.0987 1553.2 47.3253 1551.88 48.136C1550.56 48.9467 1549.07 49.352 1547.43 49.352ZM1550.95 39.976C1550.8 39.1653 1550.39 38.504 1549.7 37.992C1549.02 37.4587 1548.22 37.192 1547.3 37.192C1546.37 37.192 1545.57 37.448 1544.9 37.96C1544.26 38.4507 1543.84 39.1227 1543.62 39.976H1550.95ZM1464.76 81.256C1462.69 81.256 1461.03 80.6693 1459.8 79.496C1458.58 78.3227 1457.97 76.552 1457.97 74.184V61.192H1462.39V65.96H1466.96V69.544H1462.39V73.736C1462.39 74.632 1462.48 75.336 1462.68 75.848C1462.89 76.36 1463.26 76.744 1463.8 77C1464.33 77.256 1465.09 77.384 1466.07 77.384C1466.43 77.3627 1466.79 77.352 1467.16 77.352V81C1466.37 81.1707 1465.57 81.256 1464.76 81.256ZM1469.05 72.36C1469.05 70.4187 1469.6 68.808 1470.71 67.528C1471.84 66.248 1473.49 65.608 1475.64 65.608C1476.41 65.608 1477.12 65.6933 1477.79 65.864V69.832L1476.7 69.8C1475.57 69.8 1474.75 70.0453 1474.23 70.536C1473.72 71.0267 1473.47 71.752 1473.47 72.712V81H1469.05V72.36ZM1485.97 81.352C1484.66 81.352 1483.46 81.032 1482.35 80.392C1481.26 79.7307 1480.39 78.8027 1479.73 77.608C1479.09 76.4133 1478.77 75.0373 1478.77 73.48C1478.77 72.008 1479.11 70.6747 1479.79 69.48C1480.49 68.264 1481.46 67.3147 1482.7 66.632C1483.94 65.9493 1485.33 65.608 1486.86 65.608C1488.44 65.608 1489.84 65.9387 1491.05 66.6C1492.29 67.24 1493.25 68.1573 1493.93 69.352C1494.62 70.5467 1494.96 71.9333 1494.96 73.512V81H1491.05L1490.8 78.76C1490.33 79.5707 1489.69 80.2107 1488.88 80.68C1488.07 81.128 1487.1 81.352 1485.97 81.352ZM1486.86 77.544C1487.89 77.544 1488.76 77.2027 1489.49 76.52C1490.23 75.816 1490.61 74.8027 1490.61 73.48C1490.61 72.2853 1490.25 71.3147 1489.55 70.568C1488.85 69.8 1487.95 69.416 1486.86 69.416C1485.77 69.416 1484.88 69.8 1484.17 70.568C1483.47 71.3147 1483.12 72.2853 1483.12 73.48C1483.12 74.6747 1483.47 75.656 1484.17 76.424C1484.88 77.1707 1485.77 77.544 1486.86 77.544ZM1504.57 81.352C1503.03 81.352 1501.65 81.0107 1500.44 80.328C1499.22 79.6453 1498.26 78.7067 1497.56 77.512C1496.87 76.296 1496.53 74.952 1496.53 73.48C1496.53 72.008 1496.87 70.6747 1497.56 69.48C1498.26 68.264 1499.22 67.3147 1500.44 66.632C1501.65 65.9493 1503.03 65.608 1504.57 65.608C1506.55 65.608 1508.21 66.152 1509.56 67.24C1510.92 68.3067 1511.75 69.736 1512.05 71.528H1507.8C1507.24 70.1413 1506.2 69.448 1504.66 69.448C1503.55 69.448 1502.65 69.832 1501.94 70.6C1501.24 71.3467 1500.89 72.3067 1500.89 73.48C1500.89 74.6533 1501.24 75.624 1501.94 76.392C1502.65 77.1387 1503.55 77.512 1504.66 77.512C1506.2 77.512 1507.24 76.8187 1507.8 75.432H1512.05C1511.75 77.224 1510.92 78.664 1509.56 79.752C1508.21 80.8187 1506.55 81.352 1504.57 81.352ZM1518.87 72.744V81H1514.46V59.176H1518.87V71.752L1523.67 65.96H1528.79L1523.38 72.168L1529.11 81H1523.99L1518.87 72.744Z" fill="black"/>
<path d="M1613 0H1709C1731.09 0 1749 17.9086 1749 40V121H1613V0Z" fill="#57E0FF"/>
<path d="M1668.31 50.176H1682.93V54.336H1672.66V58.944H1681.52V63.04H1672.66V67.84H1682.93V72H1668.31V50.176ZM1689.05 55.264L1684.77 58.176V53.76L1690.05 50.176H1693.5V72H1689.05V55.264Z" fill="black"/>
<rect x="1613" y="143" width="136" height="107" fill="#57E0FF"/>
<path d="M1665.31 186.176H1679.93V190.336H1669.66V194.944H1678.52V199.04H1669.66V203.84H1679.93V208H1665.31V186.176ZM1681.96 204.288L1685.93 201.408C1687.89 199.979 1689.34 198.869 1690.28 198.08C1691.24 197.269 1691.94 196.501 1692.39 195.776C1692.86 195.051 1693.09 194.261 1693.09 193.408C1693.09 192.32 1692.77 191.445 1692.13 190.784C1691.51 190.123 1690.68 189.792 1689.64 189.792C1688.4 189.792 1687.46 190.197 1686.82 191.008C1686.18 191.819 1685.84 192.843 1685.8 194.08H1681.32C1681.34 192.608 1681.67 191.243 1682.31 189.984C1682.95 188.725 1683.89 187.723 1685.13 186.976C1686.38 186.208 1687.89 185.824 1689.64 185.824C1691.92 185.824 1693.81 186.453 1695.3 187.712C1696.82 188.949 1697.57 190.848 1697.57 193.408C1697.57 194.923 1696.98 196.437 1695.78 197.952C1694.59 199.445 1693.03 200.875 1691.11 202.24L1688.9 203.808V203.84H1697.41V208H1681.96V204.288Z" fill="black"/>
<path d="M1771 143H1907V210C1907 232.091 1889.09 250 1867 250H1771V143Z" fill="#57E0FF"/>
<path d="M1823 186.176H1837.62V190.336H1827.35V194.944H1836.21V199.04H1827.35V203.84H1837.62V208H1823V186.176ZM1848.03 208.352C1846.47 208.352 1845.07 208.075 1843.84 207.52C1842.6 206.965 1841.61 206.187 1840.86 205.184C1840.11 204.16 1839.69 202.987 1839.58 201.664H1844.32C1844.51 202.453 1844.92 203.115 1845.56 203.648C1846.2 204.181 1847.03 204.448 1848.03 204.448C1849.1 204.448 1849.95 204.181 1850.59 203.648C1851.25 203.115 1851.58 202.411 1851.58 201.536C1851.58 200.683 1851.21 200.021 1850.46 199.552C1849.71 199.083 1848.63 198.848 1847.2 198.848H1845.31V194.944H1846.94C1848.28 194.944 1849.28 194.72 1849.92 194.272C1850.58 193.803 1850.91 193.163 1850.91 192.352C1850.91 191.563 1850.63 190.933 1850.08 190.464C1849.52 189.973 1848.81 189.728 1847.93 189.728C1847.04 189.728 1846.31 189.984 1845.76 190.496C1845.2 191.008 1844.88 191.659 1844.8 192.448H1840.25C1840.32 191.445 1840.63 190.432 1841.18 189.408C1841.74 188.384 1842.58 187.531 1843.71 186.848C1844.86 186.165 1846.27 185.824 1847.93 185.824C1849.36 185.824 1850.62 186.08 1851.71 186.592C1852.82 187.083 1853.68 187.787 1854.3 188.704C1854.92 189.6 1855.23 190.613 1855.23 191.744C1855.23 193.067 1854.84 194.165 1854.08 195.04C1853.33 195.893 1852.51 196.459 1851.61 196.736V196.8C1852.72 197.013 1853.71 197.579 1854.59 198.496C1855.46 199.392 1855.9 200.597 1855.9 202.112C1855.9 203.328 1855.55 204.416 1854.84 205.376C1854.16 206.315 1853.22 207.051 1852.03 207.584C1850.83 208.096 1849.5 208.352 1848.03 208.352Z" fill="black"/>
<path d="M189 342C189 319.909 206.909 302 229 302H384.556V369.222C384.556 391.314 366.647 409.222 344.556 409.222H189V342Z" fill="#FD8A26"/>
<path d="M241.09 329.176H255.714V333.336H245.442V337.944H254.306V342.04H245.442V346.84H255.714V351H241.09V329.176ZM264.62 345.56L262.028 351H256.716L261.516 343.16L256.716 335.96H262.028L264.62 340.952L267.212 335.96H272.524L267.724 343.16L272.524 351H267.212L264.62 345.56ZM280.832 335.608C282.346 335.608 283.701 335.949 284.896 336.632C286.112 337.315 287.05 338.264 287.712 339.48C288.394 340.675 288.736 342.008 288.736 343.48C288.736 345.037 288.416 346.413 287.776 347.608C287.157 348.803 286.304 349.731 285.216 350.392C284.128 351.032 282.922 351.352 281.6 351.352C279.765 351.352 278.304 350.787 277.216 349.656V357.784H272.8V343.832C272.8 342.232 273.141 340.813 273.824 339.576C274.528 338.317 275.488 337.347 276.704 336.664C277.941 335.96 279.317 335.608 280.832 335.608ZM280.832 339.416C279.765 339.416 278.88 339.8 278.176 340.568C277.493 341.315 277.152 342.285 277.152 343.48C277.152 344.803 277.514 345.816 278.24 346.52C278.986 347.203 279.85 347.544 280.832 347.544C281.856 347.544 282.698 347.171 283.36 346.424C284.042 345.656 284.384 344.675 284.384 343.48C284.384 342.285 284.042 341.315 283.36 340.568C282.698 339.8 281.856 339.416 280.832 339.416ZM297.669 351.352C296.112 351.352 294.736 351.011 293.541 350.328C292.347 349.645 291.419 348.707 290.757 347.512C290.117 346.317 289.797 344.973 289.797 343.48C289.797 342.008 290.128 340.675 290.789 339.48C291.451 338.264 292.368 337.315 293.541 336.632C294.715 335.949 296.048 335.608 297.541 335.608C299.035 335.608 300.357 335.949 301.509 336.632C302.683 337.315 303.589 338.264 304.229 339.48C304.891 340.675 305.221 342.008 305.221 343.48C305.221 343.949 305.211 344.429 305.189 344.92H293.893C294.128 345.859 294.565 346.573 295.205 347.064C295.845 347.555 296.635 347.8 297.573 347.8C298.405 347.8 299.067 347.693 299.557 347.48C300.069 347.267 300.475 346.925 300.773 346.456H304.773C304.325 348.099 303.44 349.325 302.117 350.136C300.795 350.947 299.312 351.352 297.669 351.352ZM301.189 341.976C301.04 341.165 300.624 340.504 299.941 339.992C299.259 339.459 298.459 339.192 297.541 339.192C296.603 339.192 295.803 339.448 295.141 339.96C294.501 340.451 294.075 341.123 293.861 341.976H301.189ZM307.115 342.36C307.115 340.419 307.67 338.808 308.779 337.528C309.91 336.248 311.552 335.608 313.707 335.608C314.475 335.608 315.19 335.693 315.851 335.864V339.832L314.763 339.8C313.632 339.8 312.811 340.045 312.299 340.536C311.787 341.027 311.531 341.752 311.531 342.712V351H307.115V342.36ZM324.511 351.256C322.442 351.256 320.789 350.669 319.551 349.496C318.335 348.323 317.727 346.552 317.727 344.184V331.192H322.143V335.96H326.719V339.544H322.143V343.736C322.143 344.632 322.239 345.336 322.431 345.848C322.645 346.36 323.018 346.744 323.551 347C324.085 347.256 324.842 347.384 325.823 347.384C326.186 347.363 326.549 347.352 326.911 347.352V351C326.122 351.171 325.322 351.256 324.511 351.256ZM258.756 383.256C256.686 383.256 255.033 382.669 253.796 381.496C252.58 380.323 251.972 378.552 251.972 376.184V363.192H256.388V367.96H260.964V371.544H256.388V375.736C256.388 376.632 256.484 377.336 256.676 377.848C256.889 378.36 257.262 378.744 257.796 379C258.329 379.256 259.086 379.384 260.068 379.384C260.43 379.363 260.793 379.352 261.156 379.352V383C260.366 383.171 259.566 383.256 258.756 383.256ZM263.05 374.36C263.05 372.419 263.604 370.808 264.714 369.528C265.844 368.248 267.487 367.608 269.642 367.608C270.41 367.608 271.124 367.693 271.786 367.864V371.832L270.698 371.8C269.567 371.8 268.746 372.045 268.234 372.536C267.722 373.027 267.466 373.752 267.466 374.712V383H263.05V374.36ZM279.966 383.352C278.665 383.352 277.459 383.032 276.35 382.392C275.262 381.731 274.387 380.803 273.726 379.608C273.086 378.413 272.766 377.037 272.766 375.48C272.766 374.008 273.107 372.675 273.79 371.48C274.494 370.264 275.465 369.315 276.702 368.632C277.939 367.949 279.326 367.608 280.862 367.608C282.441 367.608 283.838 367.939 285.054 368.6C286.291 369.24 287.251 370.157 287.934 371.352C288.617 372.547 288.958 373.933 288.958 375.512V383H285.054L284.798 380.76C284.329 381.571 283.689 382.211 282.878 382.68C282.067 383.128 281.097 383.352 279.966 383.352ZM280.862 379.544C281.886 379.544 282.761 379.203 283.486 378.52C284.233 377.816 284.606 376.803 284.606 375.48C284.606 374.285 284.254 373.315 283.55 372.568C282.846 371.8 281.95 371.416 280.862 371.416C279.774 371.416 278.878 371.8 278.174 372.568C277.47 373.315 277.118 374.285 277.118 375.48C277.118 376.675 277.47 377.656 278.174 378.424C278.878 379.171 279.774 379.544 280.862 379.544ZM298.565 383.352C297.029 383.352 295.653 383.011 294.437 382.328C293.221 381.645 292.261 380.707 291.557 379.512C290.874 378.296 290.533 376.952 290.533 375.48C290.533 374.008 290.874 372.675 291.557 371.48C292.261 370.264 293.221 369.315 294.437 368.632C295.653 367.949 297.029 367.608 298.565 367.608C300.549 367.608 302.213 368.152 303.557 369.24C304.922 370.307 305.754 371.736 306.053 373.528H301.797C301.242 372.141 300.197 371.448 298.661 371.448C297.552 371.448 296.645 371.832 295.941 372.6C295.237 373.347 294.885 374.307 294.885 375.48C294.885 376.653 295.237 377.624 295.941 378.392C296.645 379.139 297.552 379.512 298.661 379.512C300.197 379.512 301.242 378.819 301.797 377.432H306.053C305.754 379.224 304.922 380.664 303.557 381.752C302.213 382.819 300.549 383.352 298.565 383.352ZM312.873 374.744V383H308.457V361.176H312.873V373.752L317.673 367.96H322.793L317.385 374.168L323.113 383H317.993L312.873 374.744Z" fill="black"/>
<rect x="409" y="303" width="136" height="106" fill="#FD8A26"/>
<path d="M463.793 345.176H472.881C474.267 345.176 475.526 345.443 476.657 345.976C477.787 346.488 478.683 347.277 479.345 348.344C480.027 349.389 480.369 350.68 480.369 352.216C480.369 353.752 480.027 355.053 479.345 356.12C478.683 357.165 477.787 357.955 476.657 358.488C475.526 359 474.267 359.256 472.881 359.256H468.273V367H463.793V345.176ZM472.241 355.032C473.307 355.032 474.171 354.797 474.833 354.328C475.494 353.859 475.825 353.155 475.825 352.216C475.825 351.277 475.494 350.573 474.833 350.104C474.171 349.635 473.307 349.4 472.241 349.4H468.273V355.032H472.241ZM485.569 350.264L481.281 353.176V348.76L486.561 345.176H490.017V367H485.569V350.264Z" fill="black"/>
<rect x="569" y="303" width="136" height="106" fill="#FD8A26"/>
<path d="M620.793 345.176H629.881C631.267 345.176 632.526 345.443 633.657 345.976C634.787 346.488 635.683 347.277 636.345 348.344C637.027 349.389 637.369 350.68 637.369 352.216C637.369 353.752 637.027 355.053 636.345 356.12C635.683 357.165 634.787 357.955 633.657 358.488C632.526 359 631.267 359.256 629.881 359.256H625.273V367H620.793V345.176ZM629.241 355.032C630.307 355.032 631.171 354.797 631.833 354.328C632.494 353.859 632.825 353.155 632.825 352.216C632.825 351.277 632.494 350.573 631.833 350.104C631.171 349.635 630.307 349.4 629.241 349.4H625.273V355.032H629.241ZM638.473 363.288L642.441 360.408C644.404 358.979 645.854 357.869 646.793 357.08C647.753 356.269 648.457 355.501 648.905 354.776C649.374 354.051 649.609 353.261 649.609 352.408C649.609 351.32 649.289 350.445 648.649 349.784C648.03 349.123 647.198 348.792 646.153 348.792C644.916 348.792 643.977 349.197 643.337 350.008C642.697 350.819 642.356 351.843 642.313 353.08H637.833C637.854 351.608 638.185 350.243 638.825 348.984C639.465 347.725 640.404 346.723 641.641 345.976C642.9 345.208 644.404 344.824 646.153 344.824C648.436 344.824 650.324 345.453 651.817 346.712C653.332 347.949 654.089 349.848 654.089 352.408C654.089 353.923 653.492 355.437 652.297 356.952C651.102 358.445 649.545 359.875 647.625 361.24L645.417 362.808V362.84H653.929V367H638.473V363.288Z" fill="black"/>
<rect x="729" y="303" width="136" height="106" fill="#FD8A26"/>
<path d="M780.48 345.176H789.568C790.955 345.176 792.213 345.443 793.344 345.976C794.475 346.488 795.371 347.277 796.032 348.344C796.715 349.389 797.056 350.68 797.056 352.216C797.056 353.752 796.715 355.053 796.032 356.12C795.371 357.165 794.475 357.955 793.344 358.488C792.213 359 790.955 359.256 789.568 359.256H784.96V367H780.48V345.176ZM788.928 355.032C789.995 355.032 790.859 354.797 791.52 354.328C792.181 353.859 792.512 353.155 792.512 352.216C792.512 351.277 792.181 350.573 791.52 350.104C790.859 349.635 789.995 349.4 788.928 349.4H784.96V355.032H788.928ZM806.544 367.352C804.987 367.352 803.59 367.075 802.352 366.52C801.115 365.965 800.123 365.187 799.376 364.184C798.63 363.16 798.203 361.987 798.096 360.664H802.832C803.024 361.453 803.44 362.115 804.08 362.648C804.72 363.181 805.542 363.448 806.544 363.448C807.611 363.448 808.464 363.181 809.104 362.648C809.766 362.115 810.096 361.411 810.096 360.536C810.096 359.683 809.723 359.021 808.976 358.552C808.23 358.083 807.142 357.848 805.712 357.848H803.824V353.944H805.456C806.8 353.944 807.792 353.72 808.432 353.272C809.094 352.803 809.424 352.163 809.424 351.352C809.424 350.563 809.147 349.933 808.592 349.464C808.038 348.973 807.323 348.728 806.448 348.728C805.552 348.728 804.827 348.984 804.272 349.496C803.718 350.008 803.398 350.659 803.312 351.448H798.768C798.832 350.445 799.142 349.432 799.696 348.408C800.251 347.384 801.094 346.531 802.224 345.848C803.376 345.165 804.784 344.824 806.448 344.824C807.878 344.824 809.136 345.08 810.224 345.592C811.334 346.083 812.198 346.787 812.816 347.704C813.435 348.6 813.744 349.613 813.744 350.744C813.744 352.067 813.36 353.165 812.592 354.04C811.846 354.893 811.024 355.459 810.128 355.736V355.8C811.238 356.013 812.23 356.579 813.104 357.496C813.979 358.392 814.417 359.597 814.417 361.112C814.417 362.328 814.065 363.416 813.361 364.376C812.678 365.315 811.739 366.051 810.544 366.584C809.35 367.096 808.016 367.352 806.544 367.352Z" fill="black"/>
<rect x="889" y="303" width="136" height="106" fill="#FD8A26"/>
<path d="M939.855 345.176H948.943C950.33 345.176 951.588 345.443 952.719 345.976C953.85 346.488 954.746 347.277 955.407 348.344C956.09 349.389 956.431 350.68 956.431 352.216C956.431 353.752 956.09 355.053 955.407 356.12C954.746 357.165 953.85 357.955 952.719 358.488C951.588 359 950.33 359.256 948.943 359.256H944.335V367H939.855V345.176ZM948.303 355.032C949.37 355.032 950.234 354.797 950.895 354.328C951.556 353.859 951.887 353.155 951.887 352.216C951.887 351.277 951.556 350.573 950.895 350.104C950.234 349.635 949.37 349.4 948.303 349.4H944.335V355.032H948.303ZM967.679 363.064H956.959V359.64L966.719 345.176H972.127V359.128H975.424V363.064H972.127V367H967.679V363.064ZM967.679 359.128V350.04H967.615C967.509 350.317 967.349 350.605 967.135 350.904L962.655 357.56C962.165 358.285 961.77 358.797 961.471 359.096V359.128H967.679Z" fill="black"/>
<rect x="1049" y="303" width="136" height="106" fill="#FD8A26"/>
<path d="M1100.4 345.176H1109.49C1110.88 345.176 1112.14 345.443 1113.27 345.976C1114.4 346.488 1115.29 347.277 1115.95 348.344C1116.64 349.389 1116.98 350.68 1116.98 352.216C1116.98 353.752 1116.64 355.053 1115.95 356.12C1115.29 357.165 1114.4 357.955 1113.27 358.488C1112.14 359 1110.88 359.256 1109.49 359.256H1104.88V367H1100.4V345.176ZM1108.85 355.032C1109.92 355.032 1110.78 354.797 1111.44 354.328C1112.1 353.859 1112.43 353.155 1112.43 352.216C1112.43 351.277 1112.1 350.573 1111.44 350.104C1110.78 349.635 1109.92 349.4 1108.85 349.4H1104.88V355.032H1108.85ZM1126.82 367.352C1124.47 367.352 1122.56 366.797 1121.09 365.688C1119.64 364.579 1118.77 362.979 1118.47 360.888H1123.17C1123.34 361.613 1123.75 362.232 1124.39 362.744C1125.03 363.256 1125.83 363.512 1126.79 363.512C1127.83 363.512 1128.71 363.171 1129.41 362.488C1130.11 361.805 1130.47 360.899 1130.47 359.768C1130.47 358.616 1130.14 357.731 1129.47 357.112C1128.81 356.472 1128 356.152 1127.04 356.152C1126.38 356.152 1125.81 356.28 1125.31 356.536C1124.82 356.792 1124.37 357.155 1123.94 357.624H1119.04L1121.12 345.176H1133.73V349.272H1124.58L1123.84 353.656H1123.91C1124.4 353.315 1124.97 353.037 1125.63 352.824C1126.32 352.589 1127.23 352.472 1128.39 352.472C1129.45 352.472 1130.49 352.739 1131.49 353.272C1132.49 353.805 1133.3 354.605 1133.92 355.672C1134.56 356.717 1134.88 357.965 1134.88 359.416C1134.88 361.187 1134.5 362.669 1133.73 363.864C1132.98 365.059 1131.99 365.944 1130.75 366.52C1129.54 367.075 1128.23 367.352 1126.82 367.352Z" fill="black"/>
<rect x="1209" y="302" width="136" height="107" fill="#FD8A26"/>
<path d="M1261.12 345.176H1270.21C1271.6 345.176 1272.85 345.443 1273.98 345.976C1275.12 346.488 1276.01 347.277 1276.67 348.344C1277.36 349.389 1277.7 350.68 1277.7 352.216C1277.7 353.752 1277.36 355.053 1276.67 356.12C1276.01 357.165 1275.12 357.955 1273.98 358.488C1272.85 359 1271.6 359.256 1270.21 359.256H1265.6V367H1261.12V345.176ZM1269.57 355.032C1270.64 355.032 1271.5 354.797 1272.16 354.328C1272.82 353.859 1273.15 353.155 1273.15 352.216C1273.15 351.277 1272.82 350.573 1272.16 350.104C1271.5 349.635 1270.64 349.4 1269.57 349.4H1265.6V355.032H1269.57ZM1286.58 367.352C1285.11 367.352 1283.78 367.043 1282.61 366.424C1281.46 365.784 1280.55 364.92 1279.89 363.832C1279.25 362.723 1278.93 361.485 1278.93 360.12C1278.93 359.075 1279.09 358.072 1279.41 357.112C1279.73 356.131 1280.33 354.968 1281.2 353.624L1286.67 345.176H1291.89L1285.81 353.528L1285.87 353.592C1286.34 353.293 1286.96 353.144 1287.73 353.144C1288.82 353.144 1289.86 353.421 1290.87 353.976C1291.87 354.509 1292.68 355.288 1293.3 356.312C1293.92 357.336 1294.23 358.541 1294.23 359.928C1294.23 361.357 1293.89 362.637 1293.23 363.768C1292.59 364.877 1291.69 365.752 1290.51 366.392C1289.36 367.032 1288.05 367.352 1286.58 367.352ZM1286.58 363.48C1287.58 363.48 1288.39 363.171 1289.01 362.552C1289.63 361.912 1289.94 361.101 1289.94 360.12C1289.94 359.117 1289.62 358.296 1288.98 357.656C1288.36 357.016 1287.56 356.696 1286.58 356.696C1285.6 356.696 1284.79 357.016 1284.15 357.656C1283.53 358.296 1283.22 359.117 1283.22 360.12C1283.22 361.101 1283.53 361.912 1284.15 362.552C1284.79 363.171 1285.6 363.48 1286.58 363.48Z" fill="black"/>
<rect x="1369" y="302" width="136" height="107" fill="#FD8A26"/>
<path d="M1421.86 345.176H1430.94C1432.33 345.176 1433.59 345.443 1434.72 345.976C1435.85 346.488 1436.75 347.277 1437.41 348.344C1438.09 349.389 1438.43 350.68 1438.43 352.216C1438.43 353.752 1438.09 355.053 1437.41 356.12C1436.75 357.165 1435.85 357.955 1434.72 358.488C1433.59 359 1432.33 359.256 1430.94 359.256H1426.34V367H1421.86V345.176ZM1430.3 355.032C1431.37 355.032 1432.23 354.797 1432.9 354.328C1433.56 353.859 1433.89 353.155 1433.89 352.216C1433.89 351.277 1433.56 350.573 1432.9 350.104C1432.23 349.635 1431.37 349.4 1430.3 349.4H1426.34V355.032H1430.3ZM1448.43 350.328C1448.6 349.987 1448.79 349.667 1449.01 349.368L1448.98 349.336H1438.9V345.176H1453.81V348.952L1444.91 367H1440.18L1448.43 350.328Z" fill="black"/>
<path d="M1529 302H1665V369C1665 391.091 1647.09 409 1625 409H1529V302Z" fill="#FD8A26"/>
<path d="M1580.54 345.176H1589.63C1591.02 345.176 1592.28 345.443 1593.41 345.976C1594.54 346.488 1595.43 347.277 1596.09 348.344C1596.78 349.389 1597.12 350.68 1597.12 352.216C1597.12 353.752 1596.78 355.053 1596.09 356.12C1595.43 357.165 1594.54 357.955 1593.41 358.488C1592.28 359 1591.02 359.256 1589.63 359.256H1585.02V367H1580.54V345.176ZM1588.99 355.032C1590.06 355.032 1590.92 354.797 1591.58 354.328C1592.24 353.859 1592.57 353.155 1592.57 352.216C1592.57 351.277 1592.24 350.573 1591.58 350.104C1590.92 349.635 1590.06 349.4 1588.99 349.4H1585.02V355.032H1588.99ZM1606.35 367.352C1604.9 367.352 1603.57 367.075 1602.35 366.52C1601.13 365.944 1600.16 365.165 1599.44 364.184C1598.71 363.181 1598.35 362.061 1598.35 360.824C1598.35 359.843 1598.56 358.968 1598.99 358.2C1599.42 357.411 1599.95 356.771 1600.59 356.28C1601.25 355.768 1601.92 355.427 1602.61 355.256V355.192C1601.8 354.872 1601.06 354.317 1600.4 353.528C1599.74 352.717 1599.41 351.736 1599.41 350.584C1599.41 349.539 1599.68 348.579 1600.24 347.704C1600.81 346.829 1601.63 346.136 1602.67 345.624C1603.72 345.091 1604.94 344.824 1606.35 344.824C1607.76 344.824 1608.99 345.091 1610.03 345.624C1611.08 346.136 1611.88 346.829 1612.43 347.704C1613.01 348.579 1613.3 349.539 1613.3 350.584C1613.3 351.736 1612.96 352.717 1612.3 353.528C1611.64 354.317 1610.91 354.872 1610.09 355.192V355.256C1610.78 355.427 1611.44 355.768 1612.08 356.28C1612.74 356.771 1613.28 357.411 1613.71 358.2C1614.14 358.968 1614.35 359.843 1614.35 360.824C1614.35 362.061 1613.99 363.181 1613.26 364.184C1612.54 365.165 1611.57 365.944 1610.35 366.52C1609.13 367.075 1607.8 367.352 1606.35 367.352ZM1606.35 363.576C1607.31 363.576 1608.14 363.288 1608.85 362.712C1609.55 362.136 1609.9 361.357 1609.9 360.376C1609.9 359.48 1609.56 358.733 1608.88 358.136C1608.22 357.539 1607.38 357.24 1606.35 357.24C1605.33 357.24 1604.47 357.539 1603.79 358.136C1603.13 358.733 1602.8 359.48 1602.8 360.376C1602.8 361.357 1603.15 362.136 1603.85 362.712C1604.56 363.288 1605.39 363.576 1606.35 363.576ZM1606.35 353.464C1607.1 353.464 1607.73 353.219 1608.24 352.728C1608.75 352.237 1609.01 351.64 1609.01 350.936C1609.01 350.232 1608.75 349.635 1608.24 349.144C1607.75 348.653 1607.12 348.408 1606.35 348.408C1605.58 348.408 1604.94 348.653 1604.43 349.144C1603.94 349.635 1603.69 350.232 1603.69 350.936C1603.69 351.64 1603.95 352.237 1604.46 352.728C1604.97 353.219 1605.6 353.464 1606.35 353.464Z" fill="black"/>
<path d="M1597 298V72.5C1597 65.8726 1602.37 60.5 1609 60.5" stroke="black" stroke-width="3" stroke-linecap="round" stroke-linejoin="bevel"/>
<path d="M1117 299C1117 286.574 1127.07 276.5 1139.5 276.5H1170.5C1182.93 276.5 1193 266.426 1193 254" stroke="black" stroke-width="3" stroke-linecap="round" stroke-linejoin="bevel"/>
<path d="M957 299C957 286.574 967.074 276.5 979.5 276.5H1010.5C1022.93 276.5 1033 266.426 1033 254" stroke="black" stroke-width="3" stroke-linecap="round" stroke-linejoin="bevel"/>
<path d="M425 183C425 160.909 442.909 143 465 143H620.556V210.333C620.556 232.425 602.647 250.333 580.556 250.333H425V183Z" fill="#8E71F4"/>
<path d="M458.457 170.176H464.409L469.529 182.656C470.147 184.213 470.563 185.355 470.777 186.08H470.841C471.054 185.355 471.47 184.213 472.089 182.656L477.209 170.176H483.161V192H478.681V178.208C478.681 177.653 478.702 177.195 478.745 176.832H478.681C478.574 177.28 478.403 177.781 478.169 178.336L472.569 191.744H469.049L463.449 178.336C463.214 177.781 463.043 177.28 462.937 176.832H462.873C462.915 177.195 462.937 177.653 462.937 178.208V192H458.457V170.176ZM492.767 192.352C491.466 192.352 490.261 192.032 489.151 191.392C488.063 190.731 487.189 189.803 486.527 188.608C485.887 187.413 485.567 186.037 485.567 184.48C485.567 183.008 485.909 181.675 486.591 180.48C487.295 179.264 488.266 178.315 489.503 177.632C490.741 176.949 492.127 176.608 493.663 176.608C495.242 176.608 496.639 176.939 497.855 177.6C499.093 178.24 500.053 179.157 500.735 180.352C501.418 181.547 501.759 182.933 501.759 184.512V192H497.855L497.599 189.76C497.13 190.571 496.49 191.211 495.679 191.68C494.869 192.128 493.898 192.352 492.767 192.352ZM493.663 188.544C494.687 188.544 495.562 188.203 496.287 187.52C497.034 186.816 497.407 185.803 497.407 184.48C497.407 183.285 497.055 182.315 496.351 181.568C495.647 180.8 494.751 180.416 493.663 180.416C492.575 180.416 491.679 180.8 490.975 181.568C490.271 182.315 489.919 183.285 489.919 184.48C489.919 185.675 490.271 186.656 490.975 187.424C491.679 188.171 492.575 188.544 493.663 188.544ZM504.166 183.584C504.166 181.493 504.796 179.819 506.054 178.56C507.313 177.28 509.084 176.629 511.366 176.608C513.649 176.629 515.42 177.28 516.678 178.56C517.937 179.819 518.566 181.493 518.566 183.584V192H514.15V183.904C514.15 182.837 513.916 182.005 513.446 181.408C512.977 180.789 512.284 180.469 511.366 180.448C510.449 180.469 509.756 180.789 509.286 181.408C508.817 182.005 508.582 182.837 508.582 183.904V192H504.166V183.584ZM527.645 192.352C526.344 192.352 525.138 192.032 524.029 191.392C522.941 190.731 522.066 189.803 521.405 188.608C520.765 187.413 520.445 186.037 520.445 184.48C520.445 183.008 520.786 181.675 521.469 180.48C522.173 179.264 523.144 178.315 524.381 177.632C525.618 176.949 527.005 176.608 528.541 176.608C530.12 176.608 531.517 176.939 532.733 177.6C533.97 178.24 534.93 179.157 535.613 180.352C536.296 181.547 536.637 182.933 536.637 184.512V192H532.733L532.477 189.76C532.008 190.571 531.368 191.211 530.557 191.68C529.746 192.128 528.776 192.352 527.645 192.352ZM528.541 188.544C529.565 188.544 530.44 188.203 531.165 187.52C531.912 186.816 532.285 185.803 532.285 184.48C532.285 183.285 531.933 182.315 531.229 181.568C530.525 180.8 529.629 180.416 528.541 180.416C527.453 180.416 526.557 180.8 525.853 181.568C525.149 182.315 524.797 183.285 524.797 184.48C524.797 185.675 525.149 186.656 525.853 187.424C526.557 188.171 527.453 188.544 528.541 188.544ZM546.34 198.688C544.271 198.688 542.564 198.155 541.22 197.088C539.897 196.021 539.087 194.624 538.788 192.896H543.044C543.257 193.515 543.641 194.027 544.196 194.432C544.751 194.837 545.465 195.04 546.34 195.04C548.815 195.04 550.052 193.504 550.052 190.432V189.76C549.071 191.36 547.503 192.16 545.348 192.16C544.047 192.16 542.852 191.84 541.764 191.2C540.676 190.56 539.812 189.653 539.172 188.48C538.532 187.307 538.212 185.963 538.212 184.448C538.212 182.976 538.553 181.643 539.236 180.448C539.94 179.253 540.9 178.315 542.116 177.632C543.332 176.949 544.708 176.608 546.244 176.608C547.78 176.608 549.135 176.96 550.308 177.664C551.481 178.347 552.388 179.317 553.028 180.576C553.689 181.813 554.02 183.221 554.02 184.8V190.016C554.02 192.021 553.647 193.675 552.9 194.976C552.175 196.277 551.225 197.216 550.052 197.792C548.9 198.389 547.663 198.688 546.34 198.688ZM546.244 188.48C547.225 188.48 548.079 188.139 548.804 187.456C549.551 186.752 549.924 185.749 549.924 184.448C549.924 183.275 549.572 182.315 548.868 181.568C548.185 180.8 547.311 180.416 546.244 180.416C545.177 180.416 544.292 180.8 543.588 181.568C542.905 182.315 542.564 183.275 542.564 184.448C542.564 185.621 542.905 186.592 543.588 187.36C544.292 188.107 545.177 188.48 546.244 188.48ZM563.445 192.352C561.887 192.352 560.511 192.011 559.317 191.328C558.122 190.645 557.194 189.707 556.533 188.512C555.893 187.317 555.573 185.973 555.573 184.48C555.573 183.008 555.903 181.675 556.565 180.48C557.226 179.264 558.143 178.315 559.317 177.632C560.49 176.949 561.823 176.608 563.317 176.608C564.81 176.608 566.133 176.949 567.285 177.632C568.458 178.315 569.365 179.264 570.005 180.48C570.666 181.675 570.997 183.008 570.997 184.48C570.997 184.949 570.986 185.429 570.965 185.92H559.669C559.903 186.859 560.341 187.573 560.981 188.064C561.621 188.555 562.41 188.8 563.349 188.8C564.181 188.8 564.842 188.693 565.333 188.48C565.845 188.267 566.25 187.925 566.549 187.456H570.549C570.101 189.099 569.215 190.325 567.893 191.136C566.57 191.947 565.087 192.352 563.445 192.352ZM566.965 182.976C566.815 182.165 566.399 181.504 565.717 180.992C565.034 180.459 564.234 180.192 563.317 180.192C562.378 180.192 561.578 180.448 560.917 180.96C560.277 181.451 559.85 182.123 559.637 182.976H566.965ZM572.891 183.36C572.891 181.419 573.445 179.808 574.555 178.528C575.685 177.248 577.328 176.608 579.483 176.608C580.251 176.608 580.965 176.693 581.627 176.864V180.832L580.539 180.8C579.408 180.8 578.587 181.045 578.075 181.536C577.563 182.027 577.307 182.752 577.307 183.712V192H572.891V183.36ZM494.756 224.256C492.686 224.256 491.033 223.669 489.796 222.496C488.58 221.323 487.972 219.552 487.972 217.184V204.192H492.388V208.96H496.964V212.544H492.388V216.736C492.388 217.632 492.484 218.336 492.676 218.848C492.889 219.36 493.262 219.744 493.796 220C494.329 220.256 495.086 220.384 496.068 220.384C496.43 220.363 496.793 220.352 497.156 220.352V224C496.366 224.171 495.566 224.256 494.756 224.256ZM499.05 215.36C499.05 213.419 499.604 211.808 500.714 210.528C501.844 209.248 503.487 208.608 505.642 208.608C506.41 208.608 507.124 208.693 507.786 208.864V212.832L506.698 212.8C505.567 212.8 504.746 213.045 504.234 213.536C503.722 214.027 503.466 214.752 503.466 215.712V224H499.05V215.36ZM515.966 224.352C514.665 224.352 513.459 224.032 512.35 223.392C511.262 222.731 510.387 221.803 509.726 220.608C509.086 219.413 508.766 218.037 508.766 216.48C508.766 215.008 509.107 213.675 509.79 212.48C510.494 211.264 511.465 210.315 512.702 209.632C513.939 208.949 515.326 208.608 516.862 208.608C518.441 208.608 519.838 208.939 521.054 209.6C522.291 210.24 523.251 211.157 523.934 212.352C524.617 213.547 524.958 214.933 524.958 216.512V224H521.054L520.798 221.76C520.329 222.571 519.689 223.211 518.878 223.68C518.067 224.128 517.097 224.352 515.966 224.352ZM516.862 220.544C517.886 220.544 518.761 220.203 519.486 219.52C520.233 218.816 520.606 217.803 520.606 216.48C520.606 215.285 520.254 214.315 519.55 213.568C518.846 212.8 517.95 212.416 516.862 212.416C515.774 212.416 514.878 212.8 514.174 213.568C513.47 214.315 513.118 215.285 513.118 216.48C513.118 217.675 513.47 218.656 514.174 219.424C514.878 220.171 515.774 220.544 516.862 220.544ZM534.565 224.352C533.029 224.352 531.653 224.011 530.437 223.328C529.221 222.645 528.261 221.707 527.557 220.512C526.874 219.296 526.533 217.952 526.533 216.48C526.533 215.008 526.874 213.675 527.557 212.48C528.261 211.264 529.221 210.315 530.437 209.632C531.653 208.949 533.029 208.608 534.565 208.608C536.549 208.608 538.213 209.152 539.557 210.24C540.922 211.307 541.754 212.736 542.053 214.528H537.797C537.242 213.141 536.197 212.448 534.661 212.448C533.552 212.448 532.645 212.832 531.941 213.6C531.237 214.347 530.885 215.307 530.885 216.48C530.885 217.653 531.237 218.624 531.941 219.392C532.645 220.139 533.552 220.512 534.661 220.512C536.197 220.512 537.242 219.819 537.797 218.432H542.053C541.754 220.224 540.922 221.664 539.557 222.752C538.213 223.819 536.549 224.352 534.565 224.352ZM548.873 215.744V224H544.457V202.176H548.873V214.752L553.673 208.96H558.793L553.385 215.168L559.113 224H553.993L548.873 215.744Z" fill="black"/>
<rect x="645" y="143" width="136" height="107" fill="#8E71F4"/>
<path d="M694.918 186.176H700.87L705.99 198.656C706.608 200.213 707.024 201.355 707.238 202.08H707.302C707.515 201.355 707.931 200.213 708.55 198.656L713.67 186.176H719.622V208H715.142V194.208C715.142 193.653 715.163 193.195 715.206 192.832H715.142C715.035 193.28 714.864 193.781 714.63 194.336L709.03 207.744H705.51L699.91 194.336C699.675 193.781 699.504 193.28 699.398 192.832H699.334C699.376 193.195 699.398 193.653 699.398 194.208V208H694.918V186.176ZM726.444 191.264L722.156 194.176V189.76L727.436 186.176H730.892V208H726.444V191.264Z" fill="black"/>
<rect x="805" y="143" width="136" height="107" fill="#8E71F4"/>
<path d="M851.918 186.176H857.87L862.99 198.656C863.608 200.213 864.024 201.355 864.238 202.08H864.302C864.515 201.355 864.931 200.213 865.55 198.656L870.67 186.176H876.622V208H872.142V194.208C872.142 193.653 872.163 193.195 872.206 192.832H872.142C872.035 193.28 871.864 193.781 871.63 194.336L866.03 207.744H862.51L856.91 194.336C856.675 193.781 856.504 193.28 856.398 192.832H856.334C856.376 193.195 856.398 193.653 856.398 194.208V208H851.918V186.176ZM879.348 204.288L883.316 201.408C885.279 199.979 886.729 198.869 887.668 198.08C888.628 197.269 889.332 196.501 889.78 195.776C890.249 195.051 890.484 194.261 890.484 193.408C890.484 192.32 890.164 191.445 889.524 190.784C888.905 190.123 888.073 189.792 887.028 189.792C885.791 189.792 884.852 190.197 884.212 191.008C883.572 191.819 883.231 192.843 883.188 194.08H878.708C878.729 192.608 879.06 191.243 879.7 189.984C880.34 188.725 881.279 187.723 882.516 186.976C883.775 186.208 885.279 185.824 887.028 185.824C889.311 185.824 891.199 186.453 892.692 187.712C894.207 188.949 894.964 190.848 894.964 193.408C894.964 194.923 894.367 196.437 893.172 197.952C891.977 199.445 890.42 200.875 888.5 202.24L886.292 203.808V203.84H894.804V208H879.348V204.288Z" fill="black"/>
<rect x="965" y="143" width="136" height="107" fill="#8E71F4"/>
<path d="M1011.61 186.176H1017.56L1022.68 198.656C1023.3 200.213 1023.71 201.355 1023.93 202.08H1023.99C1024.2 201.355 1024.62 200.213 1025.24 198.656L1030.36 186.176H1036.31V208H1031.83V194.208C1031.83 193.653 1031.85 193.195 1031.89 192.832H1031.83C1031.72 193.28 1031.55 193.781 1031.32 194.336L1025.72 207.744H1022.2L1016.6 194.336C1016.36 193.781 1016.19 193.28 1016.09 192.832H1016.02C1016.06 193.195 1016.09 193.653 1016.09 194.208V208H1011.61V186.176ZM1047.42 208.352C1045.86 208.352 1044.46 208.075 1043.23 207.52C1041.99 206.965 1041 206.187 1040.25 205.184C1039.5 204.16 1039.08 202.987 1038.97 201.664H1043.71C1043.9 202.453 1044.32 203.115 1044.96 203.648C1045.6 204.181 1046.42 204.448 1047.42 204.448C1048.49 204.448 1049.34 204.181 1049.98 203.648C1050.64 203.115 1050.97 202.411 1050.97 201.536C1050.97 200.683 1050.6 200.021 1049.85 199.552C1049.1 199.083 1048.02 198.848 1046.59 198.848H1044.7V194.944H1046.33C1047.68 194.944 1048.67 194.72 1049.31 194.272C1049.97 193.803 1050.3 193.163 1050.3 192.352C1050.3 191.563 1050.02 190.933 1049.47 190.464C1048.91 189.973 1048.2 189.728 1047.32 189.728C1046.43 189.728 1045.7 189.984 1045.15 190.496C1044.59 191.008 1044.27 191.659 1044.19 192.448H1039.64C1039.71 191.445 1040.02 190.432 1040.57 189.408C1041.13 188.384 1041.97 187.531 1043.1 186.848C1044.25 186.165 1045.66 185.824 1047.32 185.824C1048.75 185.824 1050.01 186.08 1051.1 186.592C1052.21 187.083 1053.07 187.787 1053.69 188.704C1054.31 189.6 1054.62 190.613 1054.62 191.744C1054.62 193.067 1054.24 194.165 1053.47 195.04C1052.72 195.893 1051.9 196.459 1051 196.736V196.8C1052.11 197.013 1053.1 197.579 1053.98 198.496C1054.85 199.392 1055.29 200.597 1055.29 202.112C1055.29 203.328 1054.94 204.416 1054.24 205.376C1053.55 206.315 1052.61 207.051 1051.42 207.584C1050.22 208.096 1048.89 208.352 1047.42 208.352Z" fill="black"/>
<rect x="1125" y="143" width="136" height="107" fill="#8E71F4"/>
<path d="M1170.98 186.176H1176.93L1182.05 198.656C1182.67 200.213 1183.09 201.355 1183.3 202.08H1183.36C1183.58 201.355 1183.99 200.213 1184.61 198.656L1189.73 186.176H1195.68V208H1191.2V194.208C1191.2 193.653 1191.23 193.195 1191.27 192.832H1191.2C1191.1 193.28 1190.93 193.781 1190.69 194.336L1185.09 207.744H1181.57L1175.97 194.336C1175.74 193.781 1175.57 193.28 1175.46 192.832H1175.4C1175.44 193.195 1175.46 193.653 1175.46 194.208V208H1170.98V186.176ZM1208.55 204.064H1197.83V200.64L1207.59 186.176H1213V200.128H1216.3V204.064H1213V208H1208.55V204.064ZM1208.55 200.128V191.04H1208.49C1208.38 191.317 1208.22 191.605 1208.01 191.904L1203.53 198.56C1203.04 199.285 1202.65 199.797 1202.35 200.096V200.128H1208.55Z" fill="black"/>
<rect x="1285" y="143" width="136" height="107" fill="#8E71F4"/>
<path d="M1331.53 186.176H1337.48L1342.6 198.656C1343.22 200.213 1343.63 201.355 1343.85 202.08H1343.91C1344.12 201.355 1344.54 200.213 1345.16 198.656L1350.28 186.176H1356.23V208H1351.75V194.208C1351.75 193.653 1351.77 193.195 1351.81 192.832H1351.75C1351.64 193.28 1351.47 193.781 1351.24 194.336L1345.64 207.744H1342.12L1336.52 194.336C1336.28 193.781 1336.11 193.28 1336.01 192.832H1335.94C1335.99 193.195 1336.01 193.653 1336.01 194.208V208H1331.53V186.176ZM1367.69 208.352C1365.35 208.352 1363.44 207.797 1361.97 206.688C1360.51 205.579 1359.64 203.979 1359.34 201.888H1364.05C1364.22 202.613 1364.62 203.232 1365.26 203.744C1365.9 204.256 1366.7 204.512 1367.66 204.512C1368.71 204.512 1369.58 204.171 1370.29 203.488C1370.99 202.805 1371.34 201.899 1371.34 200.768C1371.34 199.616 1371.01 198.731 1370.35 198.112C1369.69 197.472 1368.88 197.152 1367.92 197.152C1367.26 197.152 1366.68 197.28 1366.19 197.536C1365.7 197.792 1365.24 198.155 1364.81 198.624H1359.92L1362 186.176H1374.61V190.272H1365.45L1364.72 194.656H1364.78C1365.27 194.315 1365.85 194.037 1366.51 193.824C1367.19 193.589 1368.11 193.472 1369.26 193.472C1370.33 193.472 1371.36 193.739 1372.37 194.272C1373.37 194.805 1374.18 195.605 1374.8 196.672C1375.44 197.717 1375.76 198.965 1375.76 200.416C1375.76 202.187 1375.37 203.669 1374.61 204.864C1373.86 206.059 1372.87 206.944 1371.63 207.52C1370.41 208.075 1369.1 208.352 1367.69 208.352Z" fill="black"/>
<path d="M1443 143H1579V210C1579 232.091 1561.09 250 1539 250H1443V143Z" fill="#8E71F4"/>
<path d="M1490.25 186.176H1496.2L1501.32 198.656C1501.94 200.213 1502.35 201.355 1502.57 202.08H1502.63C1502.84 201.355 1503.26 200.213 1503.88 198.656L1509 186.176H1514.95V208H1510.47V194.208C1510.47 193.653 1510.49 193.195 1510.53 192.832H1510.47C1510.36 193.28 1510.19 193.781 1509.96 194.336L1504.36 207.744H1500.84L1495.24 194.336C1495 193.781 1494.83 193.28 1494.73 192.832H1494.66C1494.7 193.195 1494.73 193.653 1494.73 194.208V208H1490.25V186.176ZM1525.45 208.352C1523.98 208.352 1522.66 208.043 1521.48 207.424C1520.33 206.784 1519.43 205.92 1518.76 204.832C1518.12 203.723 1517.8 202.485 1517.8 201.12C1517.8 200.075 1517.96 199.072 1518.28 198.112C1518.6 197.131 1519.2 195.968 1520.08 194.624L1525.55 186.176H1530.76L1524.68 194.528L1524.75 194.592C1525.22 194.293 1525.84 194.144 1526.6 194.144C1527.69 194.144 1528.74 194.421 1529.74 194.976C1530.74 195.509 1531.55 196.288 1532.17 197.312C1532.79 198.336 1533.1 199.541 1533.1 200.928C1533.1 202.357 1532.77 203.637 1532.11 204.768C1531.47 205.877 1530.56 206.752 1529.39 207.392C1528.24 208.032 1526.92 208.352 1525.45 208.352ZM1525.45 204.48C1526.45 204.48 1527.27 204.171 1527.88 203.552C1528.5 202.912 1528.81 202.101 1528.81 201.12C1528.81 200.117 1528.49 199.296 1527.85 198.656C1527.23 198.016 1526.43 197.696 1525.45 197.696C1524.47 197.696 1523.66 198.016 1523.02 198.656C1522.4 199.296 1522.09 200.117 1522.09 201.12C1522.09 202.101 1522.4 202.912 1523.02 203.552C1523.66 204.171 1524.47 204.48 1525.45 204.48Z" fill="black"/>
<path d="M1353 254C1353 266.15 1362.85 276 1375 276H1415C1427.15 276 1437 285.85 1437 298" stroke="black" stroke-width="3" stroke-linecap="round" stroke-linejoin="bevel"/>
<path d="M1193 254C1193 266.15 1202.85 276 1215 276H1255C1267.15 276 1277 285.85 1277 298" stroke="black" stroke-width="3" stroke-linecap="round" stroke-linejoin="bevel"/>
<path d="M1033 254C1033 266.426 1043.07 276.5 1055.5 276.5H1094.5C1106.93 276.5 1117 286.574 1117 299" stroke="black" stroke-width="3" stroke-linecap="round" stroke-linejoin="bevel"/>
<path d="M873 254C873 266.426 883.074 276.5 895.5 276.5H934.5C946.926 276.5 957 286.574 957 299" stroke="black" stroke-width="3" stroke-linecap="round" stroke-linejoin="bevel"/>
<path d="M713 254C713 266.426 723.074 276.5 735.5 276.5H774.5C786.926 276.5 797 286.574 797 299" stroke="black" stroke-width="3" stroke-linecap="round" stroke-linejoin="bevel"/>
<path d="M1437 298C1437 285.85 1446.85 276 1459 276H1489C1501.15 276 1511 266.15 1511 254" stroke="black" stroke-width="3" stroke-linecap="round" stroke-linejoin="bevel"/>
<path d="M1277 298C1277 285.85 1286.85 276 1299 276H1331C1343.15 276 1353 266.15 1353 254" stroke="black" stroke-width="3" stroke-linecap="round" stroke-linejoin="bevel"/>
<path d="M797 299C797 286.574 807.074 276.5 819.5 276.5H850.5C862.926 276.5 873 266.426 873 254" stroke="black" stroke-width="3" stroke-linecap="round" stroke-linejoin="bevel"/>
<path d="M637 299C637 286.574 647.074 276.5 659.5 276.5H690.5C702.926 276.5 713 266.426 713 254" stroke="black" stroke-width="3" stroke-linecap="round" stroke-linejoin="bevel"/>
<path d="M1511 254C1511 265.598 1520.4 275 1532 275H1574C1586.7 275 1597 285.297 1597 298" stroke="black" stroke-width="3" stroke-linecap="round" stroke-linejoin="bevel"/>
<path d="M1583 196.5C1590.18 196.5 1596 190.68 1596 183.5V73.5C1596 66.3203 1601.82 60.5 1609 60.5" stroke="black" stroke-width="3" stroke-linecap="round" stroke-linejoin="bevel"/>
<path d="M0 184C0 161.909 17.9086 144 40 144H195.556V210.667C195.556 232.758 177.647 250.667 155.556 250.667H0V184Z" fill="#00D15F"/>
<path d="M49.0832 192.352C47.2272 192.352 45.6698 191.979 44.4112 191.232C43.1525 190.464 42.2245 189.525 41.6272 188.416C41.0298 187.285 40.7098 186.165 40.6672 185.056H45.2752C45.3818 186.016 45.7658 186.816 46.4272 187.456C47.0885 188.075 47.9738 188.384 49.0832 188.384C49.9152 188.384 50.6405 188.16 51.2592 187.712C51.8778 187.264 52.1872 186.709 52.1872 186.048C52.1872 185.472 51.9952 185.003 51.6112 184.64C51.2485 184.256 50.7898 183.957 50.2352 183.744C49.6805 183.509 48.8912 183.232 47.8672 182.912C46.4165 182.464 45.2432 182.037 44.3472 181.632C43.4512 181.205 42.6725 180.555 42.0112 179.68C41.3712 178.805 41.0512 177.653 41.0512 176.224C41.0512 175.051 41.3498 173.984 41.9472 173.024C42.5658 172.043 43.4405 171.264 44.5712 170.688C45.7018 170.112 47.0245 169.824 48.5392 169.824C50.1818 169.824 51.5792 170.155 52.7312 170.816C53.8832 171.477 54.7472 172.341 55.3232 173.408C55.9205 174.453 56.2405 175.541 56.2832 176.672H51.6752C51.6325 175.883 51.3338 175.211 50.7792 174.656C50.2245 174.08 49.4778 173.792 48.5392 173.792C47.6218 173.792 46.8858 174.027 46.3312 174.496C45.7765 174.944 45.4992 175.52 45.4992 176.224C45.4992 176.736 45.6698 177.163 46.0112 177.504C46.3738 177.845 46.8218 178.123 47.3552 178.336C47.8885 178.549 48.6352 178.795 49.5952 179.072C51.0672 179.499 52.2618 179.936 53.1792 180.384C54.1178 180.811 54.9285 181.483 55.6112 182.4C56.2938 183.317 56.6352 184.533 56.6352 186.048C56.6352 187.264 56.2725 188.352 55.5472 189.312C54.8218 190.272 53.8725 191.019 52.6992 191.552C51.5472 192.085 50.3418 192.352 49.0832 192.352ZM65.7087 192.352C63.4473 192.352 61.6767 191.712 60.3967 190.432C59.138 189.152 58.5087 187.467 58.5087 185.376V176.96H62.9247V185.056C62.9247 186.144 63.1593 186.997 63.6287 187.616C64.1193 188.213 64.8127 188.512 65.7087 188.512C67.522 188.512 68.4287 187.371 68.4287 185.088V176.96H72.8447V185.408C72.8447 186.688 72.5353 187.861 71.9167 188.928C71.3193 189.973 70.4767 190.805 69.3887 191.424C68.3007 192.043 67.074 192.352 65.7087 192.352ZM83.5889 176.608C85.1036 176.608 86.4582 176.949 87.6529 177.632C88.8689 178.315 89.8076 179.264 90.4689 180.48C91.1516 181.675 91.4929 183.008 91.4929 184.48C91.4929 186.037 91.1729 187.413 90.5329 188.608C89.9142 189.803 89.0609 190.731 87.9729 191.392C86.8849 192.032 85.6796 192.352 84.3569 192.352C82.5222 192.352 81.0609 191.787 79.9729 190.656V198.784H75.5569V184.832C75.5569 183.232 75.8982 181.813 76.5809 180.576C77.2849 179.317 78.2449 178.347 79.4609 177.664C80.6982 176.96 82.0742 176.608 83.5889 176.608ZM83.5889 180.416C82.5222 180.416 81.6369 180.8 80.9329 181.568C80.2502 182.315 79.9089 183.285 79.9089 184.48C79.9089 185.803 80.2716 186.816 80.9969 187.52C81.7436 188.203 82.6076 188.544 83.5889 188.544C84.6129 188.544 85.4556 188.171 86.1169 187.424C86.7996 186.656 87.1409 185.675 87.1409 184.48C87.1409 183.285 86.7996 182.315 86.1169 181.568C85.4556 180.8 84.6129 180.416 83.5889 180.416ZM101.418 176.608C102.933 176.608 104.288 176.949 105.482 177.632C106.698 178.315 107.637 179.264 108.298 180.48C108.981 181.675 109.322 183.008 109.322 184.48C109.322 186.037 109.002 187.413 108.362 188.608C107.744 189.803 106.89 190.731 105.802 191.392C104.714 192.032 103.509 192.352 102.186 192.352C100.352 192.352 98.8904 191.787 97.8024 190.656V198.784H93.3864V184.832C93.3864 183.232 93.7277 181.813 94.4104 180.576C95.1144 179.317 96.0744 178.347 97.2904 177.664C98.5277 176.96 99.9037 176.608 101.418 176.608ZM101.418 180.416C100.352 180.416 99.4664 180.8 98.7624 181.568C98.0797 182.315 97.7384 183.285 97.7384 184.48C97.7384 185.803 98.1011 186.816 98.8264 187.52C99.5731 188.203 100.437 188.544 101.418 188.544C102.442 188.544 103.285 188.171 103.946 187.424C104.629 186.656 104.97 185.675 104.97 184.48C104.97 183.285 104.629 182.315 103.946 181.568C103.285 180.8 102.442 180.416 101.418 180.416ZM118.512 192.352C116.955 192.352 115.557 192.011 114.32 191.328C113.083 190.645 112.112 189.707 111.408 188.512C110.725 187.296 110.384 185.952 110.384 184.48C110.384 183.008 110.725 181.675 111.408 180.48C112.112 179.264 113.083 178.315 114.32 177.632C115.557 176.949 116.955 176.608 118.512 176.608C120.069 176.608 121.467 176.949 122.704 177.632C123.941 178.315 124.901 179.264 125.584 180.48C126.288 181.675 126.64 183.008 126.64 184.48C126.64 185.952 126.288 187.296 125.584 188.512C124.901 189.707 123.941 190.645 122.704 191.328C121.467 192.011 120.069 192.352 118.512 192.352ZM118.512 188.544C119.621 188.544 120.528 188.171 121.232 187.424C121.936 186.656 122.288 185.675 122.288 184.48C122.288 183.285 121.936 182.315 121.232 181.568C120.528 180.8 119.621 180.416 118.512 180.416C117.403 180.416 116.496 180.8 115.792 181.568C115.088 182.315 114.736 183.285 114.736 184.48C114.736 185.675 115.088 186.656 115.792 187.424C116.496 188.171 117.403 188.544 118.512 188.544ZM128.514 183.36C128.514 181.419 129.069 179.808 130.178 178.528C131.309 177.248 132.951 176.608 135.106 176.608C135.874 176.608 136.589 176.693 137.25 176.864V180.832L136.162 180.8C135.031 180.8 134.21 181.045 133.698 181.536C133.186 182.027 132.93 182.752 132.93 183.712V192H128.514V183.36ZM145.91 192.256C143.841 192.256 142.188 191.669 140.95 190.496C139.734 189.323 139.126 187.552 139.126 185.184V172.192H143.542V176.96H148.118V180.544H143.542V184.736C143.542 185.632 143.638 186.336 143.83 186.848C144.044 187.36 144.417 187.744 144.95 188C145.484 188.256 146.241 188.384 147.222 188.384C147.585 188.363 147.948 188.352 148.31 188.352V192C147.521 192.171 146.721 192.256 145.91 192.256ZM69.7558 224.256C67.6864 224.256 66.0331 223.669 64.7958 222.496C63.5798 221.323 62.9718 219.552 62.9718 217.184V204.192H67.3878V208.96H71.9638V212.544H67.3878V216.736C67.3878 217.632 67.4838 218.336 67.6758 218.848C67.8891 219.36 68.2624 219.744 68.7958 220C69.3291 220.256 70.0864 220.384 71.0678 220.384C71.4304 220.363 71.7931 220.352 72.1558 220.352V224C71.3664 224.171 70.5664 224.256 69.7558 224.256ZM74.0498 215.36C74.0498 213.419 74.6044 211.808 75.7138 210.528C76.8444 209.248 78.4871 208.608 80.6418 208.608C81.4098 208.608 82.1244 208.693 82.7858 208.864V212.832L81.6978 212.8C80.5671 212.8 79.7458 213.045 79.2338 213.536C78.7218 214.027 78.4658 214.752 78.4658 215.712V224H74.0498V215.36ZM90.966 224.352C89.6647 224.352 88.4594 224.032 87.35 223.392C86.262 222.731 85.3874 221.803 84.726 220.608C84.086 219.413 83.766 218.037 83.766 216.48C83.766 215.008 84.1074 213.675 84.79 212.48C85.494 211.264 86.4647 210.315 87.702 209.632C88.9394 208.949 90.326 208.608 91.862 208.608C93.4407 208.608 94.838 208.939 96.054 209.6C97.2914 210.24 98.2514 211.157 98.934 212.352C99.6167 213.547 99.958 214.933 99.958 216.512V224H96.054L95.798 221.76C95.3287 222.571 94.6887 223.211 93.878 223.68C93.0674 224.128 92.0967 224.352 90.966 224.352ZM91.862 220.544C92.886 220.544 93.7607 220.203 94.486 219.52C95.2327 218.816 95.606 217.803 95.606 216.48C95.606 215.285 95.254 214.315 94.55 213.568C93.846 212.8 92.95 212.416 91.862 212.416C90.774 212.416 89.878 212.8 89.174 213.568C88.47 214.315 88.118 215.285 88.118 216.48C88.118 217.675 88.47 218.656 89.174 219.424C89.878 220.171 90.774 220.544 91.862 220.544ZM109.565 224.352C108.029 224.352 106.653 224.011 105.437 223.328C104.221 222.645 103.261 221.707 102.557 220.512C101.874 219.296 101.533 217.952 101.533 216.48C101.533 215.008 101.874 213.675 102.557 212.48C103.261 211.264 104.221 210.315 105.437 209.632C106.653 208.949 108.029 208.608 109.565 208.608C111.549 208.608 113.213 209.152 114.557 210.24C115.922 211.307 116.754 212.736 117.053 214.528H112.797C112.242 213.141 111.197 212.448 109.661 212.448C108.552 212.448 107.645 212.832 106.941 213.6C106.237 214.347 105.885 215.307 105.885 216.48C105.885 217.653 106.237 218.624 106.941 219.392C107.645 220.139 108.552 220.512 109.661 220.512C111.197 220.512 112.242 219.819 112.797 218.432H117.053C116.754 220.224 115.922 221.664 114.557 222.752C113.213 223.819 111.549 224.352 109.565 224.352ZM123.873 215.744V224H119.457V202.176H123.873V214.752L128.673 208.96H133.793L128.385 215.168L134.113 224H128.993L123.873 215.744Z" fill="black"/>
<rect y="273" width="107" height="165" fill="#00D15F"/>
<path d="M48.372 367.352C46.516 367.352 44.9587 366.979 43.7 366.232C42.4413 365.464 41.5133 364.525 40.916 363.416C40.3187 362.285 39.9987 361.165 39.956 360.056H44.564C44.6707 361.016 45.0547 361.816 45.716 362.456C46.3773 363.075 47.2627 363.384 48.372 363.384C49.204 363.384 49.9293 363.16 50.548 362.712C51.1667 362.264 51.476 361.709 51.476 361.048C51.476 360.472 51.284 360.003 50.9 359.64C50.5373 359.256 50.0787 358.957 49.524 358.744C48.9693 358.509 48.18 358.232 47.156 357.912C45.7053 357.464 44.532 357.037 43.636 356.632C42.74 356.205 41.9613 355.555 41.3 354.68C40.66 353.805 40.34 352.653 40.34 351.224C40.34 350.051 40.6387 348.984 41.236 348.024C41.8547 347.043 42.7293 346.264 43.86 345.688C44.9907 345.112 46.3133 344.824 47.828 344.824C49.4707 344.824 50.868 345.155 52.02 345.816C53.172 346.477 54.036 347.341 54.612 348.408C55.2093 349.453 55.5293 350.541 55.572 351.672H50.964C50.9213 350.883 50.6227 350.211 50.068 349.656C49.5133 349.08 48.7667 348.792 47.828 348.792C46.9107 348.792 46.1747 349.027 45.62 349.496C45.0653 349.944 44.788 350.52 44.788 351.224C44.788 351.736 44.9587 352.163 45.3 352.504C45.6627 352.845 46.1107 353.123 46.644 353.336C47.1773 353.549 47.924 353.795 48.884 354.072C50.356 354.499 51.5507 354.936 52.468 355.384C53.4067 355.811 54.2173 356.483 54.9 357.4C55.5827 358.317 55.924 359.533 55.924 361.048C55.924 362.264 55.5613 363.352 54.836 364.312C54.1107 365.272 53.1613 366.019 51.988 366.552C50.836 367.085 49.6307 367.352 48.372 367.352ZM61.3815 350.264L57.0935 353.176V348.76L62.3735 345.176H65.8295V367H61.3815V350.264Z" fill="black"/>
<path d="M0 464H125V571H40C17.9086 571 0 553.091 0 531V464Z" fill="#00D15F"/>
<path d="M54.372 529.352C52.516 529.352 50.9587 528.979 49.7 528.232C48.4413 527.464 47.5133 526.525 46.916 525.416C46.3187 524.285 45.9987 523.165 45.956 522.056H50.564C50.6707 523.016 51.0547 523.816 51.716 524.456C52.3773 525.075 53.2627 525.384 54.372 525.384C55.204 525.384 55.9293 525.16 56.548 524.712C57.1667 524.264 57.476 523.709 57.476 523.048C57.476 522.472 57.284 522.003 56.9 521.64C56.5373 521.256 56.0787 520.957 55.524 520.744C54.9693 520.509 54.18 520.232 53.156 519.912C51.7053 519.464 50.532 519.037 49.636 518.632C48.74 518.205 47.9613 517.555 47.3 516.68C46.66 515.805 46.34 514.653 46.34 513.224C46.34 512.051 46.6387 510.984 47.236 510.024C47.8547 509.043 48.7293 508.264 49.86 507.688C50.9907 507.112 52.3133 506.824 53.828 506.824C55.4707 506.824 56.868 507.155 58.02 507.816C59.172 508.477 60.036 509.341 60.612 510.408C61.2093 511.453 61.5293 512.541 61.572 513.672H56.964C56.9213 512.883 56.6227 512.211 56.068 511.656C55.5133 511.08 54.7667 510.792 53.828 510.792C52.9107 510.792 52.1747 511.027 51.62 511.496C51.0653 511.944 50.788 512.52 50.788 513.224C50.788 513.736 50.9587 514.163 51.3 514.504C51.6627 514.845 52.1107 515.123 52.644 515.336C53.1773 515.549 53.924 515.795 54.884 516.072C56.356 516.499 57.5507 516.936 58.468 517.384C59.4067 517.811 60.2173 518.483 60.9 519.4C61.5827 520.317 61.924 521.533 61.924 523.048C61.924 524.264 61.5613 525.352 60.836 526.312C60.1107 527.272 59.1613 528.019 57.988 528.552C56.836 529.085 55.6307 529.352 54.372 529.352ZM63.2855 525.288L67.2535 522.408C69.2162 520.979 70.6668 519.869 71.6055 519.08C72.5655 518.269 73.2695 517.501 73.7175 516.776C74.1868 516.051 74.4215 515.261 74.4215 514.408C74.4215 513.32 74.1015 512.445 73.4615 511.784C72.8428 511.123 72.0108 510.792 70.9655 510.792C69.7282 510.792 68.7895 511.197 68.1495 512.008C67.5095 512.819 67.1682 513.843 67.1255 515.08H62.6455C62.6668 513.608 62.9975 512.243 63.6375 510.984C64.2775 509.725 65.2162 508.723 66.4535 507.976C67.7122 507.208 69.2162 506.824 70.9655 506.824C73.2482 506.824 75.1362 507.453 76.6295 508.712C78.1442 509.949 78.9015 511.848 78.9015 514.408C78.9015 515.923 78.3042 517.437 77.1095 518.952C75.9148 520.445 74.3575 521.875 72.4375 523.24L70.2295 524.808V524.84H78.7415V529H63.2855V525.288Z" fill="black"/>
<rect x="151" y="464" width="143" height="107" fill="#00D15F"/>
<path d="M214.06 529.352C212.204 529.352 210.646 528.979 209.388 528.232C208.129 527.464 207.201 526.525 206.604 525.416C206.006 524.285 205.686 523.165 205.644 522.056H210.252C210.358 523.016 210.742 523.816 211.404 524.456C212.065 525.075 212.95 525.384 214.06 525.384C214.892 525.384 215.617 525.16 216.236 524.712C216.854 524.264 217.164 523.709 217.164 523.048C217.164 522.472 216.972 522.003 216.588 521.64C216.225 521.256 215.766 520.957 215.212 520.744C214.657 520.509 213.868 520.232 212.844 519.912C211.393 519.464 210.22 519.037 209.324 518.632C208.428 518.205 207.649 517.555 206.988 516.68C206.348 515.805 206.028 514.653 206.028 513.224C206.028 512.051 206.326 510.984 206.924 510.024C207.542 509.043 208.417 508.264 209.548 507.688C210.678 507.112 212.001 506.824 213.516 506.824C215.158 506.824 216.556 507.155 217.708 507.816C218.86 508.477 219.724 509.341 220.3 510.408C220.897 511.453 221.217 512.541 221.26 513.672H216.652C216.609 512.883 216.31 512.211 215.756 511.656C215.201 511.08 214.454 510.792 213.516 510.792C212.598 510.792 211.862 511.027 211.308 511.496C210.753 511.944 210.476 512.52 210.476 513.224C210.476 513.736 210.646 514.163 210.988 514.504C211.35 514.845 211.798 515.123 212.332 515.336C212.865 515.549 213.612 515.795 214.572 516.072C216.044 516.499 217.238 516.936 218.156 517.384C219.094 517.811 219.905 518.483 220.588 519.4C221.27 520.317 221.612 521.533 221.612 523.048C221.612 524.264 221.249 525.352 220.524 526.312C219.798 527.272 218.849 528.019 217.676 528.552C216.524 529.085 215.318 529.352 214.06 529.352ZM231.357 529.352C229.8 529.352 228.402 529.075 227.165 528.52C225.928 527.965 224.936 527.187 224.189 526.184C223.442 525.16 223.016 523.987 222.909 522.664H227.645C227.837 523.453 228.253 524.115 228.893 524.648C229.533 525.181 230.354 525.448 231.357 525.448C232.424 525.448 233.277 525.181 233.917 524.648C234.578 524.115 234.909 523.411 234.909 522.536C234.909 521.683 234.536 521.021 233.789 520.552C233.042 520.083 231.954 519.848 230.525 519.848H228.637V515.944H230.269C231.613 515.944 232.605 515.72 233.245 515.272C233.906 514.803 234.237 514.163 234.237 513.352C234.237 512.563 233.96 511.933 233.405 511.464C232.85 510.973 232.136 510.728 231.261 510.728C230.365 510.728 229.64 510.984 229.085 511.496C228.53 512.008 228.21 512.659 228.125 513.448H223.581C223.645 512.445 223.954 511.432 224.509 510.408C225.064 509.384 225.906 508.531 227.037 507.848C228.189 507.165 229.597 506.824 231.261 506.824C232.69 506.824 233.949 507.08 235.037 507.592C236.146 508.083 237.01 508.787 237.629 509.704C238.248 510.6 238.557 511.613 238.557 512.744C238.557 514.067 238.173 515.165 237.405 516.04C236.658 516.893 235.837 517.459 234.941 517.736V517.8C236.05 518.013 237.042 518.579 237.917 519.496C238.792 520.392 239.229 521.597 239.229 523.112C239.229 524.328 238.877 525.416 238.173 526.376C237.49 527.315 236.552 528.051 235.357 528.584C234.162 529.096 232.829 529.352 231.357 529.352Z" fill="black"/>
<rect x="318" y="464" width="129" height="107" fill="#00D15F"/>
<path d="M373.435 529.352C371.579 529.352 370.021 528.979 368.763 528.232C367.504 527.464 366.576 526.525 365.979 525.416C365.381 524.285 365.061 523.165 365.019 522.056H369.627C369.733 523.016 370.117 523.816 370.779 524.456C371.44 525.075 372.325 525.384 373.435 525.384C374.267 525.384 374.992 525.16 375.611 524.712C376.229 524.264 376.539 523.709 376.539 523.048C376.539 522.472 376.347 522.003 375.963 521.64C375.6 521.256 375.141 520.957 374.587 520.744C374.032 520.509 373.243 520.232 372.219 519.912C370.768 519.464 369.595 519.037 368.699 518.632C367.803 518.205 367.024 517.555 366.363 516.68C365.723 515.805 365.403 514.653 365.403 513.224C365.403 512.051 365.701 510.984 366.299 510.024C366.917 509.043 367.792 508.264 368.923 507.688C370.053 507.112 371.376 506.824 372.891 506.824C374.533 506.824 375.931 507.155 377.083 507.816C378.235 508.477 379.099 509.341 379.675 510.408C380.272 511.453 380.592 512.541 380.635 513.672H376.027C375.984 512.883 375.685 512.211 375.131 511.656C374.576 511.08 373.829 510.792 372.891 510.792C371.973 510.792 371.237 511.027 370.683 511.496C370.128 511.944 369.851 512.52 369.851 513.224C369.851 513.736 370.021 514.163 370.363 514.504C370.725 514.845 371.173 515.123 371.707 515.336C372.24 515.549 372.987 515.795 373.947 516.072C375.419 516.499 376.613 516.936 377.531 517.384C378.469 517.811 379.28 518.483 379.963 519.4C380.645 520.317 380.987 521.533 380.987 523.048C380.987 524.264 380.624 525.352 379.899 526.312C379.173 527.272 378.224 528.019 377.051 528.552C375.899 529.085 374.693 529.352 373.435 529.352ZM392.492 525.064H381.772V521.64L391.532 507.176H396.94V521.128H400.236V525.064H396.94V529H392.492V525.064ZM392.492 521.128V512.04H392.428C392.321 512.317 392.161 512.605 391.948 512.904L387.468 519.56C386.977 520.285 386.583 520.797 386.284 521.096V521.128H392.492Z" fill="black"/>
<path d="M470 464H619V531C619 553.091 601.091 571 579 571H470V464Z" fill="#00D15F"/>
<path d="M535.981 529.352C534.125 529.352 532.568 528.979 531.309 528.232C530.051 527.464 529.123 526.525 528.525 525.416C527.928 524.285 527.608 523.165 527.565 522.056H532.173C532.28 523.016 532.664 523.816 533.325 524.456C533.987 525.075 534.872 525.384 535.981 525.384C536.813 525.384 537.539 525.16 538.157 524.712C538.776 524.264 539.085 523.709 539.085 523.048C539.085 522.472 538.893 522.003 538.509 521.64C538.147 521.256 537.688 520.957 537.133 520.744C536.579 520.509 535.789 520.232 534.765 519.912C533.315 519.464 532.141 519.037 531.245 518.632C530.349 518.205 529.571 517.555 528.909 516.68C528.269 515.805 527.949 514.653 527.949 513.224C527.949 512.051 528.248 510.984 528.845 510.024C529.464 509.043 530.339 508.264 531.469 507.688C532.6 507.112 533.923 506.824 535.437 506.824C537.08 506.824 538.477 507.155 539.629 507.816C540.781 508.477 541.645 509.341 542.221 510.408C542.819 511.453 543.139 512.541 543.181 513.672H538.573C538.531 512.883 538.232 512.211 537.677 511.656C537.123 511.08 536.376 510.792 535.437 510.792C534.52 510.792 533.784 511.027 533.229 511.496C532.675 511.944 532.397 512.52 532.397 513.224C532.397 513.736 532.568 514.163 532.909 514.504C533.272 514.845 533.72 515.123 534.253 515.336C534.787 515.549 535.533 515.795 536.493 516.072C537.965 516.499 539.16 516.936 540.077 517.384C541.016 517.811 541.827 518.483 542.509 519.4C543.192 520.317 543.533 521.533 543.533 523.048C543.533 524.264 543.171 525.352 542.445 526.312C541.72 527.272 540.771 528.019 539.597 528.552C538.445 529.085 537.24 529.352 535.981 529.352ZM553.631 529.352C551.284 529.352 549.375 528.797 547.903 527.688C546.452 526.579 545.578 524.979 545.279 522.888H549.983C550.154 523.613 550.559 524.232 551.199 524.744C551.839 525.256 552.639 525.512 553.599 525.512C554.644 525.512 555.519 525.171 556.223 524.488C556.927 523.805 557.279 522.899 557.279 521.768C557.279 520.616 556.948 519.731 556.287 519.112C555.626 518.472 554.815 518.152 553.855 518.152C553.194 518.152 552.618 518.28 552.127 518.536C551.636 518.792 551.178 519.155 550.751 519.624H545.855L547.935 507.176H560.543V511.272H551.391L550.655 515.656H550.719C551.21 515.315 551.786 515.037 552.447 514.824C553.13 514.589 554.047 514.472 555.199 514.472C556.266 514.472 557.3 514.739 558.303 515.272C559.306 515.805 560.116 516.605 560.735 517.672C561.375 518.717 561.695 519.965 561.695 521.416C561.695 523.187 561.311 524.669 560.543 525.864C559.796 527.059 558.804 527.944 557.567 528.52C556.351 529.075 555.039 529.352 553.631 529.352Z" fill="black"/>
<path d="M544.5 460C544.5 448.954 535.546 440 524.5 440H501C487.745 440 477 429.255 477 416V413" stroke="black" stroke-width="3" stroke-linecap="round" stroke-linejoin="bevel"/>
<path d="M382.5 460C382.5 448.954 391.454 440 402.5 440H453C466.255 440 477 429.255 477 416V413" stroke="black" stroke-width="3" stroke-linecap="round" stroke-linejoin="bevel"/>
<path d="M544.5 460C544.5 447.021 555.021 436.5 568 436.5H613.5C626.479 436.5 637 425.979 637 413" stroke="black" stroke-width="3" stroke-linecap="round" stroke-linejoin="bevel"/>
</svg>
